<?xml version="1.0" encoding="UTF-8"?>
<svg xmlns="http://www.w3.org/2000/svg" xml:space="preserve" width="2443px" height="633px" style="shape-rendering:geometricPrecision; text-rendering:geometricPrecision; image-rendering:optimizeQuality; fill-rule:evenodd; clip-rule:evenodd"
viewBox="0 0 2626.44 680.94">
 <defs>
  <style type="text/css">
   <![CDATA[
    .str0 {stroke:red;stroke-width:71.68;stroke-miterlimit:2.61313}
    .fil6 {fill:none}
    .fil4 {fill:#C9A646}
    .fil1 {fill:black}
    .fil0 {fill:#666666}
    .fil3 {fill:#C9A646;fill-rule:nonzero}
    .fil2 {fill:white;fill-rule:nonzero}
    .fil5 {fill:url(#id1)}
   ]]>
  </style>
    <clipPath id="id0">
     <rect x="363.24" y="-7.99" width="1618.4" height="719.02"/>
    </clipPath>
  <radialGradient id="id1" gradientUnits="userSpaceOnUse" gradientTransform="matrix(-0.99263 0.00491303 0.0221127 -0.0958231 2605 595)" cx="1313.22" cy="548.62" r="929.53" fx="1313.22" fy="548.62">
   <stop offset="0" style="stop-opacity:1; stop-color:white"/>
   <stop offset="1" style="stop-opacity:0; stop-color:white"/>
  </radialGradient>
 </defs>
 <g id="Shadow">
  <metadata id="CorelCorpID_0Corel-Layer"/>
  <g id="_2783277005488">
   <g style="clip-path:url(#id0)">
    <image x="363.24" y="-7.99" width="1618.41" height="719.02" href="./front_logo_shadow.png"/>
   </g>
  </g>
  <path class="fil1" d="M815.45 455.77c1.28,-25.2 -19.7,-33.72 -53.98,-33.72l-65.54 0 -6.55 129.37c10.76,0.95 26.11,0.76 36.18,0l2.04 -40.15 29.36 0c34.28,0 56.13,-8.72 57.38,-33.53l1.11 -21.97zm-36.9 14.2c-0.51,10.23 -9.68,11.75 -20.67,11.75l-28.79 0 1.5 -29.74 28.8 0c11.17,0 19.99,1.7 19.47,11.93l-0.31 6.06zm182.24 -15.15c1.21,-24.06 -19.75,-32.77 -54.04,-32.77l-65.54 0 -6.54 129.37c10.76,0.76 25.34,0.76 36.18,0l2.13 -42.05 25.38 0c8.77,13.83 15.6,28.6 21.36,42.05 10.76,0.76 27.81,0.76 38.64,0 -6.26,-14.77 -13.96,-31.06 -23.44,-45.84 15.01,-4.73 23.99,-13.64 24.76,-28.98l1.11 -21.78zm-36.86 13.45c-0.52,10.23 -9.68,11.55 -20.67,11.55l-28.79 0 1.41 -27.84 28.79 0c11.18,0 20.01,1.32 19.5,11.55l-0.24 4.74zm162.86 83.15c1.37,-8.33 1.99,-20.64 1.46,-28.98l-68.76 0 1.1 -21.59 66.86 0c1.37,-8.34 1.97,-20.27 1.45,-28.6l-66.87 0 1.09 -21.41 68.76 0c1.36,-8.33 1.98,-20.46 1.45,-28.79l-104.94 0 -6.54 129.37 104.94 0zm94.52 0c35.23,0 57.28,-8.9 58.59,-34.85l3.03 -59.86c1.31,-25.95 -19.85,-34.66 -54.89,-34.66l-68.95 0 -6.54 129.37 68.76 0zm22.76 -41.86c-0.49,9.66 -9.85,11.37 -21.03,11.37l-32.77 0 3.49 -68.95 32.77 0c11.36,0 20.37,1.7 19.85,11.93l-2.31 45.65zm59.83 41.86c10.38,0.76 26.1,0.76 36.17,0l6.55 -129.37c-10,-0.76 -25.72,-0.76 -36.18,0l-6.54 129.37zm63.64 -33.71c-1.38,27.27 24.32,35.99 63.53,35.99 11.94,0 29.64,-1.71 48.38,-5.31 0.49,-9.66 0.24,-19.7 -1.2,-28.6 -12.41,1.89 -28.79,3.6 -39.2,3.6 -20.46,0 -35.59,-0.57 -34.89,-14.4l2.31 -45.65c0.68,-13.45 15.85,-13.82 36.31,-13.82 11.75,0 24.78,0.75 38.71,2.46 1.37,-8.34 1.98,-20.46 1.45,-28.8 -17.86,-2.65 -30.88,-3.59 -45.09,-3.59 -39.2,0 -65.79,8.71 -67.17,35.99l-3.14 62.13zm171.62 33.71c10.38,0.76 26.1,0.76 36.17,0l5.08 -100.39 44.52 0c1.36,-8.33 1.99,-20.65 1.46,-28.98l-125.2 0c-1.37,8.33 -2,20.65 -1.47,28.98l44.51 0 -5.07 100.39zm99.82 0c10.38,0.76 26.1,0.76 36.18,0l6.54 -129.37c-10,-0.76 -25.72,-0.76 -36.18,0l-6.54 129.37zm195.18 -95.09c1.39,-27.46 -23.72,-36.74 -62.36,-36.74 -38.64,0 -64.68,9.28 -66.07,36.74l-3.05 60.43c-1.4,27.65 23.7,36.94 62.34,36.94 38.64,0 64.68,-9.29 66.08,-36.94l3.06 -60.43zm-38.84 52.47c-0.66,13.07 -12.85,14.4 -28.76,14.4 -15.91,0 -27.96,-1.33 -27.3,-14.4l2.27 -44.89c0.67,-13.26 12.85,-14.39 28.76,-14.39 15.91,0 27.98,1.13 27.31,14.39l-2.28 44.89zm149.19 42.62c13.42,0.76 25.92,0.76 39.4,0l6.55 -129.37c-11.9,-0.76 -23.26,-0.76 -36.18,0l-4 79.18 -49.99 -79.18c-12.46,-0.76 -26.1,-0.76 -38.64,0l-6.54 129.37c11.31,1.14 24.76,1.14 36.18,0l3.9 -77.09 49.32 77.09zm-605.13 128.68c10.14,0.74 26.43,0.74 36.65,0l-46.92 -126.43c-10.51,-0.74 -23.47,-0.74 -34.06,0l-59.71 126.43c10.14,0.74 26.06,0.74 36.28,0l9.22 -21.1 51.46 0 7.08 21.1zm-16.41 -48.87l-30.18 0 17.17 -39.24 13.01 39.24zm193.71 -45.54c1.19,-23.51 -19.3,-32.02 -52.8,-32.02l-64.05 0 -6.4 126.43c10.52,0.74 24.77,0.74 35.36,0l2.08 -41.09 24.8 0c8.58,13.51 15.25,27.95 20.88,41.09 10.51,0.74 27.17,0.74 37.76,0 -6.12,-14.44 -13.64,-30.36 -22.91,-44.8 14.67,-4.62 23.45,-13.32 24.2,-28.32l1.08 -21.29zm-36.02 13.15c-0.51,9.99 -9.46,11.29 -20.19,11.29l-28.14 0 1.37 -27.21 28.14 0c10.92,0 19.56,1.29 19.05,11.29l-0.23 4.63zm159.16 81.26c1.34,-8.14 1.95,-20.17 1.43,-28.32l-67.19 0 1.06 -21.1 65.35 0c1.34,-8.15 1.93,-19.81 1.41,-27.96l-65.34 0 1.06 -20.91 67.19 0c1.34,-8.15 1.94,-20 1.43,-28.14l-102.56 0 -6.39 126.43 102.55 0zm112.55 0c13.11,0.74 25.33,0.74 38.51,0l6.39 -126.43c-11.62,-0.74 -22.73,-0.74 -35.36,0l-3.91 77.38 -48.84 -77.38c-12.18,-0.74 -25.51,-0.74 -37.77,0l-6.39 126.43c11.05,1.11 24.19,1.11 35.35,0l3.82 -75.34 48.2 75.34zm159.94 0c10.15,0.74 26.44,0.74 36.66,0l-46.92 -126.43c-10.51,-0.74 -23.47,-0.74 -34.06,0l-59.71 126.43c10.14,0.74 26.06,0.74 36.28,0l9.22 -21.1 51.46 0 7.07 21.1zm-16.41 -48.87l-30.17 0 17.16 -39.24 13.01 39.24zm-1292.73 -564.54c-20.87,0 -40.87,4.01 -60,12.04 -19.13,8.02 -35.98,19.26 -50.57,33.71 -14.58,14.45 -25.95,31.1 -34.11,49.97 -8.16,18.86 -12.24,38.72 -12.24,59.59 0,20.87 4.15,40.74 12.44,59.6 8.3,18.86 19.73,35.52 34.32,49.97 14.58,14.45 31.37,25.68 50.36,33.71 19,8.03 38.93,12.04 59.8,12.04 20.87,0 40.87,-4.01 60,-12.04 19.13,-8.03 35.99,-19.26 50.57,-33.71 14.58,-14.45 25.95,-31.11 34.11,-49.97 8.16,-18.86 12.24,-38.73 12.24,-59.6 0,-20.87 -4.08,-40.73 -12.24,-59.59 -8.16,-18.87 -19.53,-35.52 -34.11,-49.97 -14.58,-14.45 -31.44,-25.69 -50.57,-33.71 -19.13,-8.03 -39.13,-12.04 -60,-12.04zm0 18.06c18.46,0 36.06,3.54 52.78,10.63 16.72,7.09 31.5,17.06 44.34,29.9 12.85,12.85 22.81,27.63 29.9,44.35 7.09,16.72 10.64,34.18 10.64,52.37 0,18.2 -3.61,35.66 -10.84,52.38 -7.22,16.72 -17.19,31.44 -29.9,44.14 -12.7,12.71 -27.42,22.68 -44.14,29.9 -16.72,7.23 -34.32,10.84 -52.78,10.84 -18.46,0 -36.05,-3.61 -52.77,-10.84 -16.73,-7.22 -31.44,-17.19 -44.15,-29.9 -12.71,-12.7 -22.67,-27.35 -29.9,-43.94 -7.22,-16.59 -10.83,-34.12 -10.83,-52.58 0,-18.46 3.61,-35.98 10.83,-52.57 7.23,-16.59 17.19,-31.3 29.9,-44.15 12.71,-12.84 27.42,-22.81 44.15,-29.9 16.72,-7.09 34.31,-10.63 52.77,-10.63zm334.75 5.82c-3.92,-3.72 -8.36,-8.37 -19.88,-13.89 -15.12,-7.23 -28.64,-9.71 -44.21,-9.85 -20.85,-0.18 -42.75,11.13 -51.66,20.46 -14.35,15 -21.47,30.31 -21.58,54.87 -0.08,18.86 8.82,38.58 31.78,54.04 15.92,10.72 26.36,17.25 44.32,25.26 10.54,4.69 30.08,15.69 36.32,19.83 18.1,12.02 32.25,28.21 33.71,48.73 1.39,19.63 -7.78,38.21 -22.04,51.65 -14.48,13.64 -33,18.91 -52.89,18.91 -17.76,0 -31.64,-3.35 -45.66,-12.95 -13.23,-9.06 -25.18,-22.83 -34.01,-39.31l-7 19.63c5.91,11.83 16.57,25.21 30.86,34.5 16.85,10.95 33.23,15.66 54.26,15.66 24.89,0 48.49,-6.67 67.03,-23.27 18.49,-16.56 29.58,-38.25 28.56,-63.18 -1.09,-26.75 -14.01,-45.17 -35.05,-60.91 -14.5,-10.85 -31.03,-18.47 -44.96,-24.89 -7.95,-3.66 -28.07,-14.59 -35.38,-19.17 -15.75,-9.88 -32.37,-25.4 -32.37,-45.34 0,-16.39 5.28,-29.56 16.25,-41.25 9.74,-10.37 26.27,-15.75 41.38,-15.56 13.93,0.16 24.99,3.45 35.71,8.87 11.34,5.74 23.79,13.84 35.91,24.49l-9.4 -27.33zm306.57 2.72c-6.12,-3.17 -18.21,-10.55 -36.43,-17.12 -17.31,-6.25 -35.19,-9.38 -53.76,-9.52 -20.16,-0.14 -38.72,3.39 -57.39,10.31 -19.86,7.35 -37.52,19.09 -52.54,33.84 -15.02,14.75 -26.77,31.75 -35.24,51.01 -8.46,19.25 -12,39.67 -12,61.25 0,21.3 3.61,41.52 12.21,60.63 8.6,19.12 20.42,36.06 35.44,50.81 15.02,14.75 33.27,25.66 52.79,33.88 15.13,6.36 28.87,9.21 49.9,9.71 17.77,0.43 37.44,-1.83 52.34,-5.74 13.47,-3.55 28.45,-9.32 34.72,-12.92l7.4 -21.89c-11.18,5.56 -27.97,12.68 -44.12,17.06 -12.88,3.49 -28.23,6.42 -47.09,6.02 -16.14,-0.34 -28.93,-2.07 -46.95,-9.53 -17.67,-7.32 -32.91,-18.09 -46.29,-30.93 -13.11,-12.84 -23.29,-27.52 -30.52,-44.05 -7.24,-16.52 -11.56,-33.66 -11.56,-51.41 0,-18.57 3.45,-37.87 10.82,-55.08 7.38,-17.2 18.49,-31.1 31.46,-44.48 12.98,-13.38 27.81,-23.99 45.07,-31.06 17.64,-7.22 34.6,-9.75 50.89,-9.7 17.26,0.05 36.39,4.51 52.09,10.39 19.8,7.41 39.96,19.34 49.43,27.13l-10.67 -28.61zm310.85 280.37l16.99 -0.23 -148.22 -338.43 -149.55 338.66 17.88 0 131.45 -297.76 131.45 297.76zm125.68 -145.45c18.6,-1.1 34.49,-7.74 47.95,-19.85 17.5,-15.73 23.85,-36.8 24,-58.45 0.1,-13.52 -2.1,-25.88 -7.48,-37.37 -5.39,-11.49 -12.08,-21.34 -23.34,-28.78 -10,-6.61 -20.53,-10.89 -31.89,-12.64 -11.36,-1.76 -25.64,-2.93 -43.12,-2.93l-41.08 0 0 305.83 18.28 -0.17 -0.5 -144.63 37.62 -0.09 91.07 144.21 21.08 0.26 -92.59 -145.39zm-57.1 -16.74l0.43 -124.88 16.24 -0.15c15.43,-0.14 27.75,0.27 36.34,1.08 8.59,0.81 17.23,2.39 23.99,5.23 11.3,4.73 18.99,12.56 24.96,22.7 5.97,10.13 8.66,21.15 8.66,33.05 0,9.47 -1.22,19.05 -5.15,27.57 -3.93,8.52 -8.99,16.2 -16.49,21.96 -7.64,5.87 -16.65,9.89 -25.54,11.65 -8.88,1.75 -20.14,1.79 -33.24,1.79l-30.2 0zm-200.13 160.86l48.38 0 -11.04 -25.76 -12.47 0 -2.05 -3.47 -2.04 0 -1.02 -2.05 -9.81 0 -2.66 -3.06 -0.82 -4.5 0.41 -4.29 2.25 -14.52 0 -9.6 0 -11.86 2.45 -11.65 0.41 -7.56 -0.82 -9.41 0.61 -4.49 2.25 -0.21 3.07 -5.31 2.25 -10.84 0.82 -9.61 -0.41 -7.15 -4.91 -3.88 -4.7 -1.03 -3.48 -2.65 -1.02 -3.27 0.82 -3.07 1.64 -4.09 0 -6.74 -1.64 -2.87 -2.86 -1.84 -3.61 -0.4 -3.61 0.4 -2.86 1.84 -1.63 2.87 0 6.74 1.63 4.09 0.82 3.07 -1.02 3.27 -3.48 2.65 -4.7 1.03 -4.91 3.88 -0.41 7.15 0.82 9.61 2.25 10.84 3.07 5.31 2.25 0.21 0.61 4.49 -0.82 9.41 0.41 7.56 2.45 11.65 0 11.86 0 9.6 2.25 14.52 0.41 4.29 -0.82 4.5 -2.65 3.06 -9.82 0 -1.02 2.05 -2.04 0 -2.05 3.47 -12.47 0 -11.03 25.76 48.37 0zm525.4 -281.76c-3.91,-3.72 -8.35,-8.37 -19.88,-13.89 -15.11,-7.23 -28.63,-9.71 -44.2,-9.85 -20.85,-0.18 -42.75,11.13 -51.66,20.46 -14.35,15 -21.47,30.31 -21.58,54.87 -0.09,18.86 8.82,38.58 31.77,54.04 15.93,10.72 26.37,17.25 44.33,25.26 10.53,4.69 30.08,15.69 36.32,19.83 18.09,12.02 32.25,28.21 33.7,48.73 1.4,19.63 -7.77,38.21 -22.03,51.65 -14.48,13.64 -33.01,18.91 -52.9,18.91 -17.75,0 -31.64,-3.35 -45.65,-12.95 -13.23,-9.06 -25.18,-22.83 -34.01,-39.31l-7.01 19.63c5.92,11.83 16.57,25.21 30.87,34.5 16.85,10.95 33.22,15.66 54.26,15.66 24.89,0 48.49,-6.67 67.03,-23.27 18.49,-16.56 29.58,-38.25 28.56,-63.18 -1.09,-26.75 -14.01,-45.17 -35.05,-60.91 -14.5,-10.85 -31.03,-18.47 -44.96,-24.89 -7.95,-3.66 -28.08,-14.59 -35.39,-19.17 -15.74,-9.88 -32.36,-25.4 -32.36,-45.34 0,-16.39 5.28,-29.56 16.25,-41.25 9.74,-10.37 26.27,-15.75 41.38,-15.56 13.93,0.16 24.99,3.45 35.71,8.87 11.33,5.74 23.79,13.84 35.9,24.49l-9.4 -27.33z"/>
 </g>
 <g id="Logo">
  <metadata id="CorelCorpID_1Corel-Layer"/>
  <path class="fil2" d="M809 449.31c1.27,-25.19 -19.7,-33.71 -53.98,-33.71l-65.54 0 -6.55 129.37c10.75,0.95 26.1,0.76 36.18,0l2.03 -40.16 29.36 0c34.29,0 56.13,-8.71 57.39,-33.52l1.11 -21.98zm-36.9 14.21c-0.51,10.23 -9.68,11.75 -20.67,11.75l-28.79 0 1.5 -29.74 28.8 0c11.17,0 19.99,1.7 19.47,11.93l-0.31 6.06z"/>
  <path id="1" class="fil2" d="M954.33 448.37c1.22,-24.06 -19.74,-32.77 -54.03,-32.77l-65.54 0 -6.54 129.37c10.76,0.76 25.34,0.76 36.18,0l2.12 -42.05 25.39 0c8.77,13.83 15.6,28.6 21.36,42.05 10.76,0.76 27.8,0.76 38.64,0 -6.26,-14.77 -13.96,-31.06 -23.44,-45.84 15.01,-4.73 23.99,-13.64 24.76,-28.98l1.1 -21.78zm-36.86 13.45c-0.51,10.22 -9.67,11.55 -20.66,11.55l-28.79 0 1.41 -27.84 28.79 0c11.18,0 20.01,1.32 19.49,11.55l-0.24 4.74z"/>
  <path id="2" class="fil2" d="M1080.34 544.97c1.37,-8.33 1.99,-20.65 1.46,-28.98l-68.76 0 1.1 -21.59 66.86 0c1.37,-8.34 1.97,-20.27 1.45,-28.61l-66.87 0 1.08 -21.4 68.76 0c1.37,-8.34 1.99,-20.46 1.46,-28.79l-104.94 0 -6.54 129.37 104.94 0z"/>
  <path id="3" class="fil2" d="M1174.86 544.97c35.23,0 57.27,-8.9 58.59,-34.85l3.02 -59.86c1.32,-25.95 -19.84,-34.66 -54.88,-34.66l-68.95 0 -6.54 129.37 68.76 0zm22.76 -41.86c-0.49,9.66 -9.85,11.36 -21.03,11.36l-32.77 0 3.49 -68.94 32.77 0c11.36,0 20.37,1.7 19.85,11.93l-2.31 45.65z"/>
  <path id="4" class="fil2" d="M1257.44 544.97c10.38,0.76 26.11,0.76 36.18,0l6.55 -129.37c-10,-0.76 -25.72,-0.76 -36.18,0l-6.55 129.37z"/>
  <path id="5" class="fil2" d="M1321.09 511.25c-1.38,27.28 24.32,35.99 63.53,35.99 11.93,0 29.64,-1.7 48.38,-5.3 0.49,-9.66 0.24,-19.7 -1.2,-28.6 -12.41,1.89 -28.79,3.6 -39.21,3.6 -20.45,0 -35.58,-0.57 -34.88,-14.4l2.31 -45.65c0.68,-13.45 15.85,-13.83 36.31,-13.83 11.74,0 24.78,0.76 38.71,2.47 1.37,-8.34 1.98,-20.46 1.45,-28.8 -17.86,-2.65 -30.88,-3.59 -45.09,-3.59 -39.21,0 -65.79,8.71 -67.17,35.99l-3.14 62.12z"/>
  <path id="6" class="fil2" d="M1492.7 544.97c10.38,0.76 26.11,0.76 36.18,0l5.08 -100.39 44.51 0c1.37,-8.34 2,-20.65 1.47,-28.98l-125.21 0c-1.36,8.33 -1.99,20.64 -1.46,28.98l44.51 0 -5.08 100.39z"/>
  <path id="7" class="fil2" d="M1592.53 544.97c10.38,0.76 26.1,0.76 36.18,0l6.54 -129.37c-10,-0.76 -25.72,-0.76 -36.18,0l-6.54 129.37z"/>
  <path id="8" class="fil2" d="M1787.71 449.88c1.38,-27.46 -23.72,-36.74 -62.36,-36.74 -38.64,0 -64.68,9.28 -66.07,36.74l-3.06 60.43c-1.39,27.65 23.71,36.93 62.35,36.93 38.64,0 64.68,-9.28 66.08,-36.93l3.06 -60.43zm-38.84 52.47c-0.66,13.07 -12.85,14.4 -28.76,14.4 -15.91,0 -27.97,-1.33 -27.3,-14.4l2.27 -44.89c0.67,-13.26 12.85,-14.4 28.76,-14.4 15.91,0 27.97,1.14 27.3,14.4l-2.27 44.89z"/>
  <path id="9" class="fil2" d="M1898.06 544.97c13.41,0.76 25.92,0.76 39.4,0l6.55 -129.37c-11.9,-0.76 -23.26,-0.76 -36.18,0l-4.01 79.17 -49.98 -79.17c-12.46,-0.76 -26.1,-0.76 -38.64,0l-6.54 129.37c11.3,1.14 24.75,1.14 36.18,0l3.9 -77.09 49.32 77.09z"/>
  <path class="fil2" d="M1292.92 673.65c10.15,0.74 26.44,0.74 36.66,0l-46.92 -126.43c-10.51,-0.75 -23.47,-0.75 -34.06,0l-59.71 126.43c10.14,0.74 26.06,0.74 36.28,0l9.22 -21.1 51.46 0 7.07 21.1zm-16.41 -48.87l-30.17 0 17.16 -39.24 13.01 39.24z"/>
  <path id="1" class="fil2" d="M1470.23 579.24c1.19,-23.51 -19.3,-32.02 -52.81,-32.02l-64.05 0 -6.39 126.43c10.51,0.74 24.77,0.74 35.36,0l2.08 -41.1 24.8 0c8.57,13.52 15.25,27.96 20.88,41.1 10.51,0.74 27.17,0.74 37.76,0 -6.12,-14.44 -13.64,-30.36 -22.91,-44.8 14.67,-4.62 23.44,-13.33 24.2,-28.32l1.08 -21.29zm-36.02 13.14c-0.51,10 -9.46,11.3 -20.2,11.3l-28.13 0 1.37 -27.22 28.14 0c10.92,0 19.56,1.3 19.05,11.3l-0.23 4.62z"/>
  <path id="2" class="fil2" d="M1593.37 673.65c1.34,-8.14 1.95,-20.18 1.43,-28.32l-67.2 0 1.07 -21.1 65.35 0c1.34,-8.15 1.93,-19.81 1.41,-27.96l-65.34 0 1.05 -20.92 67.2 0c1.34,-8.14 1.94,-19.99 1.42,-28.13l-102.55 0 -6.39 126.43 102.55 0z"/>
  <path id="3" class="fil2" d="M1705.92 673.65c13.11,0.74 25.33,0.74 38.51,0l6.39 -126.43c-11.62,-0.75 -22.73,-0.75 -35.36,0l-3.91 77.37 -48.85 -77.37c-12.18,-0.75 -25.5,-0.75 -37.76,0l-6.39 126.43c11.05,1.11 24.19,1.11 35.35,0l3.81 -75.34 48.21 75.34z"/>
  <path id="4" class="fil2" d="M1865.86 673.65c10.15,0.74 26.44,0.74 36.66,0l-46.92 -126.43c-10.52,-0.75 -23.48,-0.75 -34.07,0l-59.7 126.43c10.14,0.74 26.06,0.74 36.28,0l9.21 -21.1 51.47 0 7.07 21.1zm-16.41 -48.87l-30.17 0 17.16 -39.24 13.01 39.24z"/>
  <path class="fil2" d="M556.72 60.24c-20.87,0 -40.87,4.01 -60,12.04 -19.13,8.02 -35.98,19.26 -50.57,33.71 -14.58,14.45 -25.95,31.1 -34.11,49.96 -8.16,18.87 -12.24,38.73 -12.24,59.6 0,20.87 4.15,40.74 12.44,59.6 8.3,18.86 19.73,35.52 34.32,49.97 14.58,14.44 31.37,25.68 50.36,33.71 19,8.02 38.93,12.04 59.8,12.04 20.87,0 40.87,-4.02 60,-12.04 19.13,-8.03 35.99,-19.27 50.57,-33.71 14.58,-14.45 25.95,-31.11 34.11,-49.97 8.16,-18.86 12.24,-38.73 12.24,-59.6 0,-20.87 -4.08,-40.73 -12.24,-59.6 -8.16,-18.86 -19.53,-35.51 -34.11,-49.96 -14.58,-14.45 -31.44,-25.69 -50.57,-33.71 -19.13,-8.03 -39.13,-12.04 -60,-12.04zm0 18.06c18.46,0 36.05,3.54 52.78,10.63 16.72,7.09 31.5,17.06 44.34,29.9 12.85,12.85 22.81,27.63 29.9,44.35 7.09,16.72 10.64,34.18 10.64,52.37 0,18.2 -3.61,35.66 -10.84,52.38 -7.22,16.72 -17.19,31.43 -29.9,44.14 -12.71,12.71 -27.42,22.68 -44.14,29.9 -16.73,7.23 -34.32,10.84 -52.78,10.84 -18.46,0 -36.05,-3.61 -52.78,-10.84 -16.72,-7.22 -31.43,-17.19 -44.14,-29.9 -12.71,-12.71 -22.68,-27.36 -29.9,-43.94 -7.22,-16.59 -10.84,-34.12 -10.84,-52.58 0,-18.46 3.62,-35.98 10.84,-52.57 7.22,-16.59 17.19,-31.3 29.9,-44.15 12.71,-12.84 27.42,-22.81 44.14,-29.9 16.73,-7.09 34.32,-10.63 52.78,-10.63zm334.75 5.82c-3.92,-3.72 -8.36,-8.37 -19.89,-13.89 -15.11,-7.23 -28.63,-9.72 -44.2,-9.85 -20.85,-0.19 -42.75,11.13 -51.66,20.46 -14.35,15 -21.47,30.31 -21.58,54.87 -0.09,18.86 8.82,38.58 31.78,54.04 15.92,10.72 26.36,17.25 44.32,25.26 10.54,4.69 30.08,15.69 36.32,19.83 18.09,12.02 32.25,28.2 33.7,48.73 1.4,19.63 -7.77,38.21 -22.03,51.65 -14.48,13.64 -33,18.91 -52.89,18.91 -17.76,0 -31.64,-3.35 -45.66,-12.95 -13.23,-9.06 -25.18,-22.83 -34.01,-39.31l-7.01 19.63c5.92,11.83 16.58,25.21 30.87,34.5 16.85,10.95 33.23,15.65 54.26,15.65 24.89,0 48.49,-6.66 67.03,-23.26 18.49,-16.56 29.58,-38.25 28.56,-63.18 -1.09,-26.75 -14.01,-45.17 -35.05,-60.91 -14.5,-10.85 -31.03,-18.47 -44.96,-24.89 -7.95,-3.67 -28.07,-14.59 -35.38,-19.18 -15.75,-9.87 -32.37,-25.39 -32.37,-45.34 0,-16.38 5.28,-29.55 16.25,-41.24 9.74,-10.37 26.27,-15.75 41.38,-15.57 13.93,0.17 24.99,3.46 35.71,8.88 11.34,5.74 23.79,13.84 35.9,24.49l-9.39 -27.33zm306.57 2.72c-6.12,-3.18 -18.21,-10.55 -36.43,-17.12 -17.31,-6.25 -35.19,-9.39 -53.76,-9.52 -20.16,-0.14 -38.72,3.39 -57.39,10.3 -19.86,7.35 -37.52,19.1 -52.54,33.85 -15.02,14.75 -26.77,31.75 -35.24,51.01 -8.47,19.25 -12,39.67 -12,61.25 0,21.3 3.6,41.51 12.21,60.63 8.6,19.12 20.42,36.06 35.44,50.81 15.02,14.74 33.27,25.66 52.79,33.87 15.13,6.37 28.87,9.22 49.9,9.72 17.77,0.43 37.44,-1.83 52.34,-5.74 13.47,-3.55 28.45,-9.32 34.72,-12.92l7.4 -21.89c-11.18,5.56 -27.97,12.68 -44.12,17.06 -12.88,3.49 -28.23,6.42 -47.09,6.02 -16.14,-0.34 -28.93,-2.07 -46.95,-9.53 -17.67,-7.32 -32.91,-18.1 -46.29,-30.93 -13.11,-12.84 -23.29,-27.52 -30.53,-44.05 -7.23,-16.52 -11.56,-33.66 -11.56,-51.41 0,-18.58 3.46,-37.87 10.83,-55.08 7.38,-17.2 18.49,-31.1 31.46,-44.48 12.97,-13.38 27.81,-23.99 45.07,-31.06 17.63,-7.22 34.6,-9.75 50.89,-9.7 17.26,0.05 36.39,4.51 52.09,10.39 19.8,7.41 39.96,19.34 49.43,27.13l-10.67 -28.61zm310.85 280.37l16.99 -0.23 -148.22 -338.43 -149.55 338.66 17.88 0 131.44 -297.76 131.46 297.76zm125.67 -145.46c18.61,-1.09 34.5,-7.73 47.96,-19.84 17.5,-15.73 23.85,-36.8 24,-58.45 0.09,-13.52 -2.1,-25.88 -7.48,-37.37 -5.39,-11.49 -12.08,-21.34 -23.34,-28.78 -10,-6.61 -20.53,-10.89 -31.89,-12.64 -11.36,-1.76 -25.64,-2.93 -43.12,-2.93l-41.08 0 0 305.83 18.28 -0.17 -0.51 -144.63 37.63 -0.09 91.07 144.21 21.08 0.26 -92.6 -145.4zm-57.09 -16.73l0.42 -124.88 16.24 -0.15c15.44,-0.14 27.75,0.27 36.35,1.07 8.59,0.81 17.23,2.4 23.99,5.23 11.3,4.74 18.99,12.57 24.96,22.7 5.97,10.14 8.66,21.16 8.66,33.06 0,9.46 -1.22,19.05 -5.15,27.57 -3.94,8.52 -8.99,16.2 -16.5,21.96 -7.63,5.87 -16.65,9.89 -25.53,11.65 -8.88,1.75 -20.14,1.79 -33.25,1.79l-30.19 0zm-200.13 160.86l48.37 0 -11.03 -25.76 -12.47 0 -2.05 -3.47 -2.04 0 -1.02 -2.05 -9.82 0 -2.65 -3.06 -0.82 -4.5 0.41 -4.29 2.25 -14.52 0 -9.61 0 -11.85 2.45 -11.65 0.41 -7.57 -0.82 -9.4 0.61 -4.5 2.25 -0.2 3.07 -5.32 2.25 -10.83 0.82 -9.61 -0.41 -7.15 -4.91 -3.89 -4.7 -1.02 -3.48 -2.65 -1.02 -3.28 0.82 -3.06 1.63 -4.09 0 -6.75 -1.63 -2.86 -2.86 -1.84 -3.61 -0.41 -3.61 0.41 -2.86 1.84 -1.64 2.86 0 6.75 1.64 4.09 0.82 3.06 -1.02 3.28 -3.48 2.65 -4.7 1.02 -4.91 3.89 -0.41 7.15 0.82 9.61 2.25 10.83 3.07 5.32 2.25 0.2 0.61 4.5 -0.82 9.4 0.41 7.57 2.45 11.65 0 11.85 0 9.61 2.25 14.52 0.41 4.29 -0.82 4.5 -2.66 3.06 -9.81 0 -1.02 2.05 -2.04 0 -2.05 3.47 -12.47 0 -11.04 25.76 48.38 0zm525.4 -281.76c-3.91,-3.72 -8.35,-8.37 -19.88,-13.89 -15.11,-7.23 -28.63,-9.72 -44.2,-9.85 -20.85,-0.19 -42.75,11.13 -51.67,20.46 -14.34,15 -21.46,30.31 -21.57,54.87 -0.09,18.86 8.82,38.58 31.77,54.04 15.93,10.72 26.36,17.25 44.33,25.26 10.53,4.69 30.08,15.69 36.31,19.83 18.1,12.02 32.25,28.2 33.71,48.73 1.4,19.63 -7.77,38.21 -22.03,51.65 -14.48,13.64 -33.01,18.91 -52.9,18.91 -17.75,0 -31.64,-3.35 -45.66,-12.95 -13.23,-9.06 -25.17,-22.83 -34,-39.31l-7.01 19.63c5.92,11.83 16.57,25.21 30.86,34.5 16.86,10.95 33.23,15.65 54.26,15.65 24.89,0 48.5,-6.66 67.04,-23.26 18.49,-16.56 29.58,-38.25 28.56,-63.18 -1.09,-26.75 -14.01,-45.17 -35.05,-60.91 -14.5,-10.85 -31.03,-18.47 -44.97,-24.89 -7.94,-3.67 -28.07,-14.59 -35.38,-19.18 -15.74,-9.87 -32.36,-25.39 -32.36,-45.34 0,-16.38 5.28,-29.55 16.25,-41.24 9.74,-10.37 26.27,-15.75 41.38,-15.57 13.93,0.17 24.99,3.46 35.71,8.88 11.33,5.74 23.79,13.84 35.9,24.49l-9.4 -27.33z"/>
  <g id="_2783277013712">
   <path class="fil3" d="M553.5 57.01c-20.88,0 -40.87,4.01 -60,12.04 -19.13,8.03 -35.99,19.27 -50.57,33.71 -14.58,14.45 -25.95,31.11 -34.12,49.97 -8.15,18.86 -12.24,38.73 -12.24,59.6 0,20.87 4.15,40.73 12.45,59.59 8.29,18.87 19.73,35.52 34.31,49.97 14.58,14.45 31.37,25.69 50.37,33.71 18.99,8.03 38.92,12.04 59.8,12.04 20.87,0 40.86,-4.01 60,-12.04 19.12,-8.02 35.98,-19.26 50.56,-33.71 14.58,-14.45 25.95,-31.1 34.12,-49.97 8.16,-18.86 12.24,-38.72 12.24,-59.59 0,-20.87 -4.08,-40.74 -12.24,-59.6 -8.17,-18.86 -19.54,-35.52 -34.12,-49.97 -14.58,-14.44 -31.44,-25.68 -50.56,-33.71 -19.14,-8.03 -39.13,-12.04 -60,-12.04zm0 18.06c18.46,0 36.05,3.55 52.77,10.64 16.72,7.09 31.5,17.05 44.35,29.89 12.84,12.85 22.81,27.63 29.9,44.35 7.09,16.72 10.63,34.18 10.63,52.38 0,18.19 -3.61,35.65 -10.83,52.37 -7.23,16.72 -17.19,31.44 -29.9,44.15 -12.71,12.71 -27.43,22.67 -44.15,29.9 -16.72,7.22 -34.31,10.83 -52.77,10.83 -18.47,0 -36.06,-3.61 -52.78,-10.83 -16.72,-7.23 -31.44,-17.19 -44.15,-29.9 -12.71,-12.71 -22.67,-27.36 -29.9,-43.95 -7.22,-16.59 -10.83,-34.11 -10.83,-52.57 0,-18.46 3.61,-35.99 10.83,-52.58 7.23,-16.58 17.19,-31.3 29.9,-44.15 12.71,-12.84 27.43,-22.8 44.15,-29.89 16.72,-7.09 34.31,-10.64 52.78,-10.64zm334.74 5.83c-3.91,-3.73 -8.36,-8.38 -19.88,-13.9 -15.12,-7.23 -28.64,-9.71 -44.2,-9.85 -20.85,-0.18 -42.76,11.14 -51.67,20.46 -14.34,15 -21.46,30.31 -21.58,54.88 -0.08,18.85 8.82,38.58 31.78,54.03 15.92,10.73 26.36,17.26 44.32,25.26 10.54,4.7 30.08,15.69 36.32,19.83 18.1,12.02 32.25,28.21 33.71,48.73 1.39,19.64 -7.78,38.22 -22.03,51.65 -14.49,13.64 -33.01,18.91 -52.9,18.91 -17.75,0 -31.64,-3.35 -45.66,-12.95 -13.23,-9.06 -25.17,-22.83 -34.01,-39.3l-7 19.63c5.92,11.82 16.57,25.21 30.86,34.49 16.85,10.95 33.23,15.66 54.26,15.66 24.89,0 48.5,-6.66 67.03,-23.26 18.49,-16.56 29.59,-38.25 28.57,-63.19 -1.1,-26.75 -14.01,-45.16 -35.06,-60.9 -14.5,-10.85 -31.03,-18.48 -44.96,-24.9 -7.95,-3.66 -28.07,-14.59 -35.38,-19.17 -15.75,-9.88 -32.37,-25.4 -32.37,-45.34 0,-16.39 5.29,-29.56 16.25,-41.24 9.74,-10.38 26.27,-15.75 41.38,-15.57 13.93,0.17 25,3.45 35.72,8.88 11.33,5.73 23.79,13.83 35.9,24.48l-9.4 -27.32zm306.57 2.71c-6.11,-3.17 -18.2,-10.54 -36.43,-17.12 -17.31,-6.24 -35.19,-9.38 -53.76,-9.51 -20.15,-0.14 -38.72,3.39 -57.39,10.3 -19.86,7.35 -37.52,19.1 -52.54,33.84 -15.02,14.75 -26.77,31.76 -35.23,51.01 -8.47,19.26 -12,39.67 -12,61.25 0,21.31 3.6,41.52 12.2,60.64 8.6,19.12 20.42,36.05 35.44,50.8 15.02,14.75 33.28,25.66 52.79,33.88 15.13,6.37 28.88,9.21 49.9,9.72 17.77,0.43 37.45,-1.83 52.35,-5.75 13.47,-3.54 28.44,-9.32 34.71,-12.92l7.41 -21.89c-11.19,5.56 -27.98,12.69 -44.12,17.06 -12.89,3.5 -28.24,6.42 -47.09,6.03 -16.15,-0.35 -28.94,-2.08 -46.95,-9.54 -17.68,-7.32 -32.92,-18.09 -46.3,-30.93 -13.11,-12.84 -23.28,-27.52 -30.52,-44.04 -7.24,-16.53 -11.56,-33.67 -11.56,-51.42 0,-18.57 3.45,-37.87 10.83,-55.07 7.37,-17.21 18.48,-31.1 31.46,-44.49 12.97,-13.38 27.81,-23.99 45.06,-31.05 17.64,-7.23 34.6,-9.75 50.89,-9.71 17.27,0.05 36.39,4.51 52.1,10.39 19.79,7.42 39.95,19.34 49.42,27.13l-10.67 -28.61zm310.85 280.37l16.99 -0.22 -148.22 -338.44 -149.55 338.66 17.88 0 131.45 -297.75 131.45 297.75zm125.68 -145.45c18.6,-1.1 34.49,-7.74 47.96,-19.85 17.49,-15.72 23.85,-36.79 24,-58.45 0.09,-13.52 -2.1,-25.87 -7.49,-37.36 -5.39,-11.49 -12.07,-21.34 -23.34,-28.79 -10,-6.61 -20.53,-10.88 -31.89,-12.64 -11.36,-1.76 -25.64,-2.92 -43.12,-2.92l-41.08 0 0 305.82 18.28 -0.17 -0.5 -144.63 37.63 -0.08 91.06 144.21 21.09 0.25 -92.6 -145.39zm-57.1 -16.74l0.43 -124.87 16.24 -0.15c15.44,-0.15 27.75,0.26 36.34,1.07 8.59,0.81 17.23,2.4 23.99,5.23 11.3,4.73 18.99,12.56 24.96,22.7 5.98,10.14 8.66,21.16 8.66,33.06 0,9.46 -1.22,19.05 -5.15,27.57 -3.93,8.51 -8.98,16.2 -16.49,21.96 -7.64,5.86 -16.65,9.89 -25.53,11.64 -8.89,1.76 -20.15,1.79 -33.25,1.79l-30.2 0zm-200.13 160.86l48.38 0 -11.04 -25.75 -12.47 0 -2.04 -3.48 -2.05 0 -1.02 -2.04 -9.81 0 -2.66 -3.07 -0.82 -4.5 0.41 -4.29 2.25 -14.51 0 -9.61 0 -11.86 2.45 -11.65 0.41 -7.56 -0.82 -9.4 0.62 -4.5 2.25 -0.21 3.06 -5.31 2.25 -10.84 0.82 -9.6 -0.41 -7.16 -4.91 -3.88 -4.7 -1.02 -3.47 -2.66 -1.02 -3.27 0.81 -3.07 1.64 -4.09 0 -6.74 -1.64 -2.86 -2.86 -1.84 -3.61 -0.41 -3.6 0.41 -2.87 1.84 -1.63 2.86 0 6.74 1.63 4.09 0.82 3.07 -1.02 3.27 -3.47 2.66 -4.71 1.02 -4.9 3.88 -0.41 7.16 0.82 9.6 2.24 10.84 3.07 5.31 2.25 0.21 0.61 4.5 -0.81 9.4 0.4 7.56 2.46 11.65 0 11.86 0 9.61 2.25 14.51 0.4 4.29 -0.81 4.5 -2.66 3.07 -9.81 0 -1.02 2.04 -2.05 0 -2.04 3.48 -12.47 0 -11.04 25.75 48.37 0zm525.41 -281.75c-3.92,-3.73 -8.36,-8.38 -19.88,-13.9 -15.12,-7.23 -28.64,-9.71 -44.21,-9.85 -20.84,-0.18 -42.75,11.14 -51.66,20.46 -14.34,15 -21.46,30.31 -21.58,54.88 -0.08,18.85 8.82,38.58 31.78,54.03 15.92,10.73 26.36,17.26 44.32,25.26 10.54,4.7 30.08,15.69 36.32,19.83 18.1,12.02 32.25,28.21 33.71,48.73 1.39,19.64 -7.78,38.22 -22.04,51.65 -14.48,13.64 -33,18.91 -52.89,18.91 -17.76,0 -31.64,-3.35 -45.66,-12.95 -13.23,-9.06 -25.18,-22.83 -34.01,-39.3l-7 19.63c5.91,11.82 16.57,25.21 30.86,34.49 16.85,10.95 33.23,15.66 54.26,15.66 24.89,0 48.49,-6.66 67.03,-23.26 18.49,-16.56 29.58,-38.25 28.56,-63.19 -1.09,-26.75 -14.01,-45.16 -35.05,-60.9 -14.5,-10.85 -31.03,-18.48 -44.96,-24.9 -7.95,-3.66 -28.07,-14.59 -35.38,-19.17 -15.75,-9.88 -32.37,-25.4 -32.37,-45.34 0,-16.39 5.28,-29.56 16.25,-41.24 9.74,-10.38 26.27,-15.75 41.38,-15.57 13.93,0.17 24.99,3.45 35.71,8.88 11.34,5.73 23.79,13.83 35.91,24.48l-9.4 -27.32z"/>
   <path class="fil4" d="M1956.08 340.75c6.91,0 12.52,5.61 12.52,12.52 0,6.92 -5.61,12.52 -12.52,12.52 -6.92,0 -12.52,-5.6 -12.52,-12.52 0,-6.91 5.6,-12.52 12.52,-12.52zm0 1.9c5.86,0 10.62,4.76 10.62,10.62 0,5.87 -4.76,10.62 -10.62,10.62 -5.87,0 -10.62,-4.75 -10.62,-10.62 0,-5.86 4.75,-10.62 10.62,-10.62z"/>
   <path class="fil4" d="M1952.67 360.42l0 -14.53 3.41 0c0.98,0 1.69,0.05 2.14,0.16 0.45,0.11 0.86,0.3 1.2,0.56 0.43,0.34 0.76,0.79 1,1.36 0.24,0.56 0.36,1.19 0.36,1.88 0,1.18 -0.33,2.09 -1,2.71 -0.66,0.62 -1.64,0.93 -2.92,0.93l-0.31 0 5.55 6.93 -2.2 0 -5.3 -6.93 -0.24 0 0 6.93 -1.69 0zm1.69 -13.07l0 4.86 1.31 0c1.36,0 2.26,-0.18 2.72,-0.53 0.45,-0.34 0.68,-0.95 0.68,-1.81 0,-0.94 -0.23,-1.59 -0.7,-1.96 -0.47,-0.37 -1.37,-0.56 -2.7,-0.56l-1.31 0z"/>
  </g>
  <rect class="fil5" y="543.67" width="2626.44" height="6.19"/>
  <path class="fil6 str0" d="M457.48 382.67c0,-13.28 -12.43,-41.01 -10.09,-52.5 9.5,-46.57 -34.67,-154.05 -61.62,-190.1 -31.53,-42.17 -34.86,-72.33 -53.03,-100.43 56.86,-8.96 327.84,1.44 344.28,-3.74m-256.96 158.41c39.99,-24.95 208.17,-41.93 220.78,-52.39m-190.84 234.51c94.78,-33.5 161.96,-49.9 263.19,-49.9m89.81 -271.92c-32.74,74.77 -2.49,101.91 -2.49,189.06 0,3.22 8.2,124.11 0.82,88.57 -0.07,-0.35 -3.32,-23.32 -3.32,-24.42m12.48 -244.48c6.93,100.11 104.78,159.84 104.78,180.87 6.04,-1.25 48.07,-150.57 67.89,-174.56 36.07,-43.68 15.25,-46.49 29.3,18.14 13.32,61.26 43.76,163 66.22,225.02m125.98 48.65c0,-75.99 -6.08,-143.53 -26.2,-217.04 -3.57,-13.07 4.99,-66.03 4.99,-83.15 -5.71,32.34 119.33,140.17 145.73,174.7 4.38,-0.97 19,-75.27 21.21,-82.39 3.11,-10.07 54.14,-109.83 48.54,-88.89 -8.26,30.9 20.12,150.39 23.59,199.48 1.24,17.53 6.13,61.37 11.66,77.33m27.44 -256.96c10.94,20.94 66.87,66.03 91.38,98.58 53.87,71.53 38.59,52.48 83.04,-10.44 53.99,-76.43 57.46,-75.46 134.82,-128.98 0.05,-0.03 3.17,-2.23 2.6,-2.81m-174.63 185.85c-17.64,30.79 -7.48,79.42 -7.48,113.52m399.16 -254.47c-28.42,-10.28 -119.66,-21.15 -141.27,4.28 -34.44,40.51 -25.13,90.35 -5.1,135.43 4.83,10.89 89.71,31.18 109.27,56.13 42.43,54.13 81.63,70.45 -17.36,115.9 -31.12,14.29 -116.52,30.13 -142.2,0.11 -22.38,-26.17 -67.79,-67.29 -67.79,-101.04"/>
 </g>
</svg>
