<?xml version="1.0" encoding="UTF-8"?>
<!DOCTYPE svg PUBLIC "-//W3C//DTD SVG 1.1//EN" "http://www.w3.org/Graphics/SVG/1.1/DTD/svg11.dtd">
<!-- Creator: CorelDRAW 2019 (64-Bit) -->
<svg xmlns="http://www.w3.org/2000/svg" xml:space="preserve" width="2000px" height="800px" version="1.1" style="shape-rendering:geometricPrecision; text-rendering:geometricPrecision; image-rendering:optimizeQuality; fill-rule:evenodd; clip-rule:evenodd"
viewBox="0 0 2000 800"
 xmlns:xlink="http://www.w3.org/1999/xlink"
 xmlns:xodm="http://www.corel.com/coreldraw/odm/2003">
 <defs>
  <style type="text/css">
   <![CDATA[
    .fil3 {fill:#C9A646}
    .fil0 {fill:black}
    .fil2 {fill:#C9A646;fill-rule:nonzero}
    .fil1 {fill:white;fill-rule:nonzero}
    .fil4 {fill:url(#id1)}
   ]]>
  </style>
    <clipPath id="id0">
     <rect x="201.8" y="56.96" width="1505.15" height="669"/>
    </clipPath>
  <radialGradient id="id1" gradientUnits="userSpaceOnUse" gradientTransform="matrix(-0.99263 0.00491303 0.0221127 -0.0958231 2150 624)" cx="1085.3" cy="574.65" r="864.49" fx="1085.3" fy="574.65">
   <stop offset="0" style="stop-opacity:1; stop-color:white"/>
   <stop offset="1" style="stop-opacity:0; stop-color:white"/>
  </radialGradient>
 </defs>
 <g id="Background">
  <metadata id="CorelCorpID_0Corel-Layer"/>
 </g>
 <g id="Shadow">
  <metadata id="CorelCorpID_1Corel-Layer"/>
  <g id="_2458591738000">
   <g style="clip-path:url(#id0)">
    <image x="201.8" y="56.96" width="1505.16" height="668.99" xlink:href="front_logo_shadow.png"/>
   </g>
  </g>
  <path class="fil0" d="M622.37 488.29c1.18,-23.43 -18.32,-31.36 -50.21,-31.36l-60.95 0 -6.09 120.32c10,0.88 24.28,0.7 33.65,0l1.89 -37.35 27.3 0c31.89,0 52.21,-8.1 53.37,-31.18l1.04 -20.43zm-34.32 13.21c-0.48,9.51 -9.01,10.92 -19.23,10.92l-26.77 0 1.4 -27.66 26.77 0c10.4,0 18.6,1.59 18.12,11.1l-0.29 5.64zm169.48 -14.1c1.13,-22.37 -18.37,-30.47 -50.25,-30.47l-60.96 0 -6.08 120.32c10,0.7 23.57,0.7 33.65,0l1.97 -39.11 23.61 0c8.16,12.86 14.51,26.6 19.87,39.11 10,0.7 25.86,0.7 35.93,0 -5.82,-13.74 -12.98,-28.89 -21.8,-42.63 13.97,-4.41 22.31,-12.69 23.03,-26.96l1.03 -20.26zm-34.28 12.51c-0.48,9.52 -9,10.75 -19.22,10.75l-26.78 0 1.31 -25.9 26.78 0c10.4,0 18.61,1.24 18.13,10.75l-0.22 4.4zm151.46 77.34c1.28,-7.75 1.86,-19.2 1.37,-26.95l-63.95 0 1.02 -20.09 62.18 0c1.27,-7.75 1.84,-18.85 1.35,-26.6l-62.19 0 1.01 -19.9 63.95 0c1.27,-7.76 1.84,-19.03 1.35,-26.78l-97.6 0 -6.08 120.32 97.59 0zm87.91 0c32.77,0 53.27,-8.28 54.49,-32.42l2.82 -55.66c1.22,-24.14 -18.46,-32.24 -51.05,-32.24l-64.12 0 -6.09 120.32 63.95 0zm21.17 -38.93c-0.45,8.98 -9.16,10.57 -19.56,10.57l-30.47 0 3.24 -64.13 30.48 0c10.57,0 18.94,1.59 18.46,11.1l-2.15 42.46zm55.64 38.93c9.65,0.7 24.27,0.7 33.65,0l6.08 -120.32c-9.3,-0.71 -23.92,-0.71 -33.65,0l-6.08 120.32zm59.19 -31.36c-1.28,25.37 22.62,33.47 59.09,33.47 11.09,0 27.56,-1.58 44.99,-4.93 0.46,-8.98 0.22,-18.32 -1.12,-26.6 -11.54,1.76 -26.77,3.35 -36.46,3.35 -19.02,0 -33.09,-0.53 -32.44,-13.39l2.15 -42.46c0.63,-12.51 14.74,-12.86 33.77,-12.86 10.92,0 23.04,0.71 35.99,2.29 1.28,-7.75 1.85,-19.02 1.36,-26.78 -16.61,-2.46 -28.72,-3.34 -41.94,-3.34 -36.46,0 -61.18,8.1 -62.47,33.47l-2.92 57.78zm159.61 31.36c9.65,0.7 24.27,0.7 33.64,0l4.73 -93.37 41.39 0c1.28,-7.75 1.86,-19.2 1.37,-26.95l-116.45 0c-1.27,7.75 -1.85,19.2 -1.36,26.95l41.4 0 -4.72 93.37zm92.84 0c9.65,0.7 24.27,0.7 33.64,0l6.09 -120.32c-9.3,-0.71 -23.92,-0.71 -33.65,0l-6.08 120.32zm181.51 -88.44c1.3,-25.54 -22.05,-34.17 -57.99,-34.17 -35.93,0 -60.15,8.63 -61.44,34.17l-2.85 56.2c-1.3,25.72 22.05,34.35 57.99,34.35 35.93,0 60.15,-8.63 61.45,-34.35l2.84 -56.2zm-36.11 48.8c-0.62,12.16 -11.95,13.39 -26.75,13.39 -14.8,0 -26.01,-1.23 -25.39,-13.39l2.11 -41.75c0.62,-12.33 11.95,-13.39 26.75,-13.39 14.79,0 26.02,1.06 25.39,13.39l-2.11 41.75zm138.75 39.64c12.47,0.7 24.1,0.7 36.64,0l6.09 -120.32c-11.06,-0.71 -21.63,-0.71 -33.65,0l-3.72 73.63 -46.49 -73.63c-11.59,-0.71 -24.27,-0.71 -35.93,0l-6.09 120.32c10.52,1.06 23.02,1.06 33.65,0l3.62 -71.7 45.88 71.7zm-562.79 119.67c9.43,0.69 24.58,0.69 34.08,0l-43.63 -117.58c-9.78,-0.69 -21.83,-0.69 -31.68,0l-55.53 117.58c9.44,0.69 24.24,0.69 33.74,0l8.57 -19.62 47.86 0 6.59 19.62zm-15.27 -45.45l-28.06 0 15.96 -36.5 12.1 36.5zm180.16 -42.35c1.11,-21.86 -17.94,-29.78 -49.11,-29.78l-59.56 0 -5.95 117.58c9.78,0.69 23.03,0.69 32.88,0l1.94 -38.22 23.06 0c7.98,12.57 14.19,26 19.42,38.22 9.78,0.69 25.27,0.69 35.12,0 -5.69,-13.42 -12.69,-28.23 -21.31,-41.66 13.65,-4.3 21.81,-12.39 22.51,-26.34l1 -19.8zm-33.5 12.22c-0.47,9.3 -8.79,10.51 -18.78,10.51l-26.17 0 1.28 -25.31 26.17 0c10.16,0 18.19,1.2 17.72,10.5l-0.22 4.3zm148.03 75.58c1.24,-7.57 1.81,-18.76 1.33,-26.34l-62.5 0 1 -19.62 60.77 0c1.25,-7.58 1.79,-18.42 1.32,-26l-60.78 0 0.99 -19.45 62.49 0c1.24,-7.58 1.8,-18.6 1.33,-26.17l-95.38 0 -5.95 117.58 95.38 0zm104.67 0c12.19,0.69 23.56,0.69 35.81,0l5.95 -117.58c-10.81,-0.69 -21.14,-0.69 -32.88,0l-3.64 71.96 -45.43 -71.96c-11.33,-0.69 -23.72,-0.69 -35.12,0l-5.95 117.58c10.28,1.04 22.5,1.04 32.89,0l3.54 -70.07 44.83 70.07zm148.75 0c9.44,0.69 24.59,0.69 34.09,0l-43.64 -117.58c-9.77,-0.69 -21.82,-0.69 -31.67,0l-55.53 117.58c9.43,0.69 24.24,0.69 33.74,0l8.57 -19.62 47.86 0 6.58 19.62zm-15.26 -45.45l-28.06 0 15.96 -36.5 12.1 36.5zm-1202.27 -525.04c-19.41,0 -38.01,3.74 -55.8,11.2 -17.79,7.47 -33.47,17.92 -47.03,31.36 -13.56,13.43 -24.14,28.92 -31.73,46.46 -7.58,17.55 -11.38,36.02 -11.38,55.43 0,19.41 3.86,37.89 11.57,55.43 7.72,17.54 18.35,33.03 31.91,46.47 13.56,13.44 29.18,23.89 46.85,31.35 17.66,7.47 36.2,11.2 55.61,11.2 19.41,0 38.01,-3.73 55.8,-11.2 17.79,-7.46 33.47,-17.91 47.03,-31.35 13.56,-13.44 24.14,-28.93 31.73,-46.47 7.58,-17.54 11.38,-36.02 11.38,-55.43 0,-19.41 -3.8,-37.88 -11.38,-55.43 -7.59,-17.54 -18.17,-33.03 -31.73,-46.46 -13.56,-13.44 -29.24,-23.89 -47.03,-31.36 -17.79,-7.46 -36.39,-11.2 -55.8,-11.2zm0 16.8c17.17,0 33.53,3.3 49.08,9.89 15.55,6.6 29.3,15.87 41.25,27.81 11.94,11.94 21.21,25.69 27.8,41.24 6.6,15.55 9.89,31.79 9.89,48.71 0,16.92 -3.36,33.16 -10.07,48.71 -6.72,15.55 -15.99,29.24 -27.81,41.06 -11.82,11.82 -25.51,21.08 -41.06,27.8 -15.55,6.72 -31.91,10.08 -49.08,10.08 -17.17,0 -33.53,-3.36 -49.08,-10.08 -15.56,-6.72 -29.24,-15.98 -41.06,-27.8 -11.82,-11.82 -21.09,-25.45 -27.81,-40.87 -6.71,-15.43 -10.07,-31.73 -10.07,-48.9 0,-17.17 3.36,-33.47 10.07,-48.9 6.72,-15.42 15.99,-29.11 27.81,-41.05 11.82,-11.94 25.5,-21.21 41.06,-27.81 15.55,-6.59 31.91,-9.89 49.08,-9.89zm311.32 5.42c-3.64,-3.46 -7.77,-7.79 -18.49,-12.92 -14.06,-6.73 -26.63,-9.04 -41.11,-9.17 -19.39,-0.17 -39.76,10.36 -48.05,19.03 -13.34,13.96 -19.96,28.19 -20.07,51.04 -0.08,17.53 8.21,35.88 29.56,50.25 14.8,9.98 24.51,16.05 41.22,23.49 9.8,4.37 27.97,14.6 33.77,18.45 16.84,11.18 30,26.23 31.35,45.32 1.3,18.26 -7.23,35.54 -20.49,48.03 -13.47,12.69 -30.69,17.59 -49.19,17.59 -16.51,0 -29.43,-3.11 -42.47,-12.04 -12.3,-8.43 -23.41,-21.24 -31.63,-36.56l-6.51 18.26c5.5,11 15.41,23.44 28.7,32.08 15.68,10.18 30.91,14.56 50.47,14.56 23.14,0 45.1,-6.2 62.34,-21.63 17.2,-15.41 27.51,-35.58 26.56,-58.77 -1.01,-24.87 -13.03,-42 -32.6,-56.64 -13.48,-10.09 -28.85,-17.18 -41.81,-23.15 -7.4,-3.41 -26.11,-13.57 -32.91,-17.84 -14.64,-9.18 -30.1,-23.61 -30.1,-42.16 0,-15.24 4.91,-27.49 15.11,-38.36 9.06,-9.65 24.43,-14.65 38.49,-14.48 12.95,0.16 23.24,3.22 33.21,8.26 10.54,5.33 22.13,12.87 33.39,22.77l-8.74 -25.41zm285.12 2.53c-5.69,-2.96 -16.93,-9.81 -33.88,-15.93 -16.1,-5.81 -32.73,-8.73 -50,-8.85 -18.75,-0.13 -36.01,3.16 -53.38,9.58 -18.46,6.84 -34.89,17.76 -48.86,31.48 -13.97,13.72 -24.89,29.53 -32.77,47.44 -7.87,17.91 -11.16,36.9 -11.16,56.96 0,19.82 3.35,38.61 11.35,56.39 8,17.79 18.99,33.54 32.96,47.25 13.97,13.72 30.95,23.87 49.1,31.51 14.07,5.92 26.85,8.57 46.41,9.04 16.53,0.4 34.82,-1.7 48.68,-5.35 12.53,-3.29 26.45,-8.66 32.29,-12.01l6.88 -20.36c-10.4,5.17 -26.01,11.8 -41.03,15.87 -11.98,3.25 -26.26,5.97 -43.79,5.6 -15.02,-0.32 -26.91,-1.93 -43.67,-8.87 -16.44,-6.8 -30.61,-16.82 -43.06,-28.76 -12.19,-11.94 -21.65,-25.6 -28.38,-40.96 -6.73,-15.37 -10.75,-31.31 -10.75,-47.82 0,-17.28 3.21,-35.22 10.07,-51.22 6.86,-16.01 17.19,-28.93 29.25,-41.37 12.07,-12.45 25.87,-22.31 41.92,-28.89 16.4,-6.72 32.18,-9.07 47.33,-9.02 16.05,0.05 33.84,4.19 48.45,9.66 18.4,6.9 37.16,17.98 45.96,25.23l-9.92 -26.6zm289.1 260.74l15.8 -0.21 -137.85 -314.74 -139.09 314.95 16.63 0 122.25 -276.91 122.26 276.91zm116.88 -135.27c17.3,-1.02 32.08,-7.2 44.6,-18.46 16.27,-14.62 22.18,-34.22 22.32,-54.36 0.09,-12.57 -1.95,-24.06 -6.96,-34.75 -5.01,-10.68 -11.23,-19.85 -21.71,-26.77 -9.3,-6.15 -19.09,-10.12 -29.66,-11.76 -10.56,-1.63 -23.84,-2.72 -40.1,-2.72l-38.2 0 0 284.43 17 -0.16 -0.47 -134.51 35 -0.08 84.69 134.12 19.61 0.24 -86.12 -135.22zm-53.1 -15.56l0.4 -116.14 15.1 -0.14c14.36,-0.13 25.81,0.24 33.8,0.99 7.99,0.76 16.02,2.23 22.31,4.87 10.51,4.4 17.66,11.68 23.22,21.11 5.55,9.43 8.05,19.68 8.05,30.74 0,8.8 -1.14,17.72 -4.79,25.65 -3.66,7.91 -8.36,15.06 -15.34,20.42 -7.1,5.45 -15.49,9.2 -23.75,10.83 -8.26,1.63 -18.73,1.67 -30.92,1.67l-28.08 0zm-186.13 149.6l44.99 0 -10.26 -23.96 -11.6 0 -1.9 -3.23 -1.9 0 -0.95 -1.9 -9.13 0 -2.47 -2.85 -0.76 -4.18 0.38 -4 2.09 -13.49 0 -8.94 0 -11.03 2.28 -10.83 0.38 -7.04 -0.76 -8.74 0.57 -4.18 2.1 -0.19 2.85 -4.95 2.09 -10.07 0.76 -8.94 -0.38 -6.65 -4.56 -3.61 -4.38 -0.95 -3.23 -2.48 -0.95 -3.04 0.76 -2.85 1.52 -3.8 0 -6.27 -1.52 -2.67 -2.66 -1.71 -3.36 -0.38 -3.35 0.38 -2.66 1.71 -1.52 2.67 0 6.27 1.52 3.8 0.76 2.85 -0.95 3.04 -3.23 2.48 -4.38 0.95 -4.56 3.61 -0.38 6.65 0.76 8.94 2.09 10.07 2.85 4.95 2.09 0.19 0.58 4.18 -0.77 8.74 0.39 7.04 2.28 10.83 0 11.03 0 8.94 2.09 13.49 0.38 4 -0.76 4.18 -2.47 2.85 -9.13 0 -0.95 1.9 -1.9 0 -1.9 3.23 -11.6 0 -10.27 23.96 44.99 0zm488.64 -262.04c-3.64,-3.46 -7.77,-7.79 -18.49,-12.92 -14.05,-6.73 -26.63,-9.04 -41.11,-9.17 -19.39,-0.17 -39.76,10.36 -48.05,19.03 -13.34,13.96 -19.96,28.19 -20.06,51.04 -0.08,17.53 8.2,35.88 29.55,50.25 14.81,9.98 24.51,16.05 41.22,23.49 9.8,4.37 27.98,14.6 33.78,18.45 16.83,11.18 29.99,26.23 31.35,45.32 1.29,18.26 -7.24,35.54 -20.49,48.03 -13.47,12.69 -30.7,17.59 -49.2,17.59 -16.51,0 -29.43,-3.11 -42.46,-12.04 -12.31,-8.43 -23.42,-21.24 -31.63,-36.56l-6.52 18.26c5.51,11 15.42,23.44 28.71,32.08 15.67,10.18 30.9,14.56 50.46,14.56 23.15,0 45.1,-6.2 62.34,-21.63 17.2,-15.41 27.51,-35.58 26.57,-58.77 -1.02,-24.87 -13.03,-42 -32.6,-56.64 -13.49,-10.09 -28.86,-17.18 -41.82,-23.15 -7.39,-3.41 -26.11,-13.57 -32.91,-17.84 -14.64,-9.18 -30.1,-23.61 -30.1,-42.16 0,-15.24 4.92,-27.49 15.12,-38.36 9.05,-9.65 24.43,-14.65 38.48,-14.48 12.96,0.16 23.24,3.22 33.21,8.26 10.54,5.33 22.13,12.87 33.39,22.77l-8.74 -25.41z"/>
 </g>
 <g id="Logo">
  <metadata id="CorelCorpID_2Corel-Layer"/>
  <path class="fil1" d="M616.37 482.29c1.18,-23.43 -18.32,-31.36 -50.21,-31.36l-60.95 0 -6.09 120.32c10,0.88 24.28,0.7 33.65,0l1.89 -37.35 27.3 0c31.89,0 52.21,-8.1 53.37,-31.18l1.04 -20.43zm-34.32 13.21c-0.48,9.51 -9.01,10.92 -19.23,10.92l-26.77 0 1.4 -27.66 26.77 0c10.4,0 18.6,1.59 18.12,11.1l-0.29 5.64z"/>
  <path id="1" class="fil1" d="M751.53 481.4c1.13,-22.37 -18.37,-30.47 -50.25,-30.47l-60.96 0 -6.08 120.32c10,0.7 23.57,0.7 33.65,0l1.97 -39.11 23.61 0c8.16,12.86 14.51,26.6 19.87,39.11 10,0.7 25.86,0.7 35.93,0 -5.82,-13.74 -12.98,-28.89 -21.8,-42.63 13.97,-4.41 22.31,-12.69 23.03,-26.96l1.03 -20.26zm-34.28 12.51c-0.48,9.52 -9,10.75 -19.22,10.75l-26.78 0 1.31 -25.9 26.78 0c10.4,0 18.61,1.24 18.13,10.75l-0.22 4.4z"/>
  <path id="2" class="fil1" d="M868.71 571.25c1.28,-7.75 1.86,-19.2 1.37,-26.95l-63.95 0 1.02 -20.09 62.18 0c1.27,-7.75 1.84,-18.85 1.35,-26.6l-62.19 0 1.01 -19.9 63.95 0c1.27,-7.76 1.84,-19.03 1.35,-26.78l-97.6 0 -6.08 120.32 97.59 0z"/>
  <path id="3" class="fil1" d="M956.62 571.25c32.77,0 53.27,-8.28 54.49,-32.42l2.82 -55.66c1.22,-24.14 -18.46,-32.24 -51.05,-32.24l-64.12 0 -6.09 120.32 63.95 0zm21.17 -38.93c-0.45,8.98 -9.16,10.57 -19.56,10.57l-30.47 0 3.24 -64.13 30.48 0c10.57,0 18.94,1.59 18.46,11.1l-2.15 42.46z"/>
  <path id="4" class="fil1" d="M1033.43 571.25c9.65,0.7 24.27,0.7 33.65,0l6.08 -120.32c-9.3,-0.71 -23.92,-0.71 -33.65,0l-6.08 120.32z"/>
  <path id="5" class="fil1" d="M1092.62 539.89c-1.28,25.37 22.62,33.47 59.09,33.47 11.09,0 27.56,-1.58 44.99,-4.93 0.46,-8.98 0.22,-18.32 -1.12,-26.6 -11.54,1.76 -26.77,3.35 -36.46,3.35 -19.02,0 -33.09,-0.53 -32.44,-13.39l2.15 -42.46c0.63,-12.51 14.74,-12.86 33.77,-12.86 10.92,0 23.04,0.71 35.99,2.29 1.28,-7.75 1.85,-19.02 1.36,-26.78 -16.61,-2.46 -28.72,-3.34 -41.94,-3.34 -36.46,0 -61.18,8.1 -62.47,33.47l-2.92 57.78z"/>
  <path id="6" class="fil1" d="M1252.23 571.25c9.65,0.7 24.27,0.7 33.64,0l4.73 -93.37 41.39 0c1.28,-7.75 1.86,-19.2 1.37,-26.95l-116.45 0c-1.27,7.75 -1.85,19.2 -1.36,26.95l41.4 0 -4.72 93.37z"/>
  <path id="7" class="fil1" d="M1345.07 571.25c9.65,0.7 24.27,0.7 33.64,0l6.09 -120.32c-9.3,-0.71 -23.92,-0.71 -33.65,0l-6.08 120.32z"/>
  <path id="8" class="fil1" d="M1526.58 482.81c1.3,-25.54 -22.05,-34.17 -57.99,-34.17 -35.93,0 -60.15,8.63 -61.44,34.17l-2.85 56.2c-1.3,25.72 22.05,34.35 57.99,34.35 35.93,0 60.15,-8.63 61.45,-34.35l2.84 -56.2zm-36.11 48.8c-0.62,12.16 -11.95,13.39 -26.75,13.39 -14.8,0 -26.01,-1.23 -25.39,-13.39l2.11 -41.75c0.62,-12.33 11.95,-13.39 26.75,-13.39 14.79,0 26.02,1.06 25.39,13.39l-2.11 41.75z"/>
  <path id="9" class="fil1" d="M1629.22 571.25c12.47,0.7 24.1,0.7 36.64,0l6.09 -120.32c-11.06,-0.71 -21.63,-0.71 -33.65,0l-3.72 73.63 -46.49 -73.63c-11.59,-0.71 -24.27,-0.71 -35.93,0l-6.09 120.32c10.52,1.06 23.02,1.06 33.65,0l3.62 -71.7 45.88 71.7z"/>
  <path class="fil1" d="M1066.43 690.92c9.43,0.69 24.58,0.69 34.08,0l-43.63 -117.58c-9.78,-0.69 -21.83,-0.69 -31.68,0l-55.53 117.58c9.44,0.69 24.24,0.69 33.74,0l8.57 -19.62 47.86 0 6.59 19.62zm-15.27 -45.45l-28.06 0 15.96 -36.5 12.1 36.5z"/>
  <path id="1" class="fil1" d="M1231.32 603.12c1.11,-21.86 -17.94,-29.78 -49.11,-29.78l-59.56 0 -5.95 117.58c9.78,0.69 23.03,0.69 32.88,0l1.94 -38.22 23.06 0c7.98,12.57 14.19,26 19.42,38.22 9.78,0.69 25.27,0.69 35.12,0 -5.69,-13.42 -12.69,-28.23 -21.31,-41.66 13.65,-4.3 21.81,-12.39 22.51,-26.34l1 -19.8zm-33.5 12.22c-0.47,9.3 -8.79,10.51 -18.78,10.51l-26.17 0 1.28 -25.31 26.17 0c10.16,0 18.19,1.2 17.72,10.5l-0.22 4.3z"/>
  <path id="2" class="fil1" d="M1345.85 690.92c1.24,-7.57 1.81,-18.76 1.33,-26.34l-62.5 0 1 -19.62 60.77 0c1.25,-7.58 1.79,-18.42 1.32,-26l-60.78 0 0.99 -19.45 62.49 0c1.24,-7.58 1.8,-18.6 1.33,-26.17l-95.38 0 -5.95 117.58 95.38 0z"/>
  <path id="3" class="fil1" d="M1450.52 690.92c12.19,0.69 23.56,0.69 35.81,0l5.95 -117.58c-10.81,-0.69 -21.14,-0.69 -32.88,0l-3.64 71.96 -45.43 -71.96c-11.33,-0.69 -23.72,-0.69 -35.12,0l-5.95 117.58c10.28,1.04 22.5,1.04 32.89,0l3.54 -70.07 44.83 70.07z"/>
  <path id="4" class="fil1" d="M1599.27 690.92c9.44,0.69 24.59,0.69 34.09,0l-43.64 -117.58c-9.77,-0.69 -21.82,-0.69 -31.67,0l-55.53 117.58c9.43,0.69 24.24,0.69 33.74,0l8.57 -19.62 47.86 0 6.58 19.62zm-15.26 -45.45l-28.06 0 15.96 -36.5 12.1 36.5z"/>
  <path class="fil1" d="M381.74 120.43c-19.41,0 -38.01,3.74 -55.8,11.2 -17.79,7.47 -33.47,17.92 -47.03,31.36 -13.56,13.43 -24.14,28.92 -31.73,46.46 -7.58,17.55 -11.38,36.02 -11.38,55.43 0,19.41 3.86,37.89 11.57,55.43 7.72,17.54 18.35,33.03 31.91,46.47 13.56,13.44 29.18,23.89 46.85,31.35 17.66,7.47 36.2,11.2 55.61,11.2 19.41,0 38.01,-3.73 55.8,-11.2 17.79,-7.46 33.47,-17.91 47.03,-31.35 13.56,-13.44 24.14,-28.93 31.73,-46.47 7.58,-17.54 11.38,-36.02 11.38,-55.43 0,-19.41 -3.8,-37.88 -11.38,-55.43 -7.59,-17.54 -18.17,-33.03 -31.73,-46.46 -13.56,-13.44 -29.24,-23.89 -47.03,-31.36 -17.79,-7.46 -36.39,-11.2 -55.8,-11.2zm0 16.8c17.17,0 33.53,3.3 49.08,9.89 15.55,6.6 29.3,15.87 41.25,27.81 11.94,11.94 21.21,25.69 27.8,41.24 6.6,15.55 9.89,31.79 9.89,48.71 0,16.92 -3.36,33.16 -10.07,48.71 -6.72,15.55 -15.99,29.24 -27.81,41.06 -11.82,11.82 -25.51,21.08 -41.06,27.8 -15.55,6.72 -31.91,10.08 -49.08,10.08 -17.17,0 -33.53,-3.36 -49.08,-10.08 -15.56,-6.72 -29.24,-15.98 -41.06,-27.8 -11.82,-11.82 -21.09,-25.45 -27.81,-40.87 -6.71,-15.43 -10.07,-31.73 -10.07,-48.9 0,-17.17 3.36,-33.47 10.07,-48.9 6.72,-15.42 15.99,-29.11 27.81,-41.05 11.82,-11.94 25.5,-21.21 41.06,-27.81 15.55,-6.59 31.91,-9.89 49.08,-9.89zm311.32 5.42c-3.64,-3.46 -7.77,-7.79 -18.49,-12.92 -14.06,-6.73 -26.63,-9.04 -41.11,-9.17 -19.39,-0.17 -39.76,10.36 -48.05,19.03 -13.34,13.96 -19.96,28.19 -20.07,51.04 -0.08,17.53 8.21,35.88 29.56,50.25 14.8,9.98 24.51,16.05 41.22,23.49 9.8,4.37 27.97,14.6 33.77,18.45 16.84,11.18 30,26.23 31.35,45.32 1.3,18.26 -7.23,35.54 -20.49,48.03 -13.47,12.69 -30.69,17.59 -49.19,17.59 -16.51,0 -29.43,-3.11 -42.47,-12.04 -12.3,-8.43 -23.41,-21.24 -31.63,-36.56l-6.51 18.26c5.5,11 15.41,23.44 28.7,32.08 15.68,10.18 30.91,14.56 50.47,14.56 23.14,0 45.1,-6.2 62.34,-21.63 17.2,-15.41 27.51,-35.58 26.56,-58.77 -1.01,-24.87 -13.03,-42 -32.6,-56.64 -13.48,-10.09 -28.85,-17.18 -41.81,-23.15 -7.4,-3.41 -26.11,-13.57 -32.91,-17.84 -14.64,-9.18 -30.1,-23.61 -30.1,-42.16 0,-15.24 4.91,-27.49 15.11,-38.36 9.06,-9.65 24.43,-14.65 38.49,-14.48 12.95,0.16 23.24,3.22 33.21,8.26 10.54,5.33 22.13,12.87 33.39,22.77l-8.74 -25.41zm285.12 2.53c-5.69,-2.96 -16.93,-9.81 -33.88,-15.93 -16.1,-5.81 -32.73,-8.73 -50,-8.85 -18.75,-0.13 -36.01,3.16 -53.38,9.58 -18.46,6.84 -34.89,17.76 -48.86,31.48 -13.97,13.72 -24.89,29.53 -32.77,47.44 -7.87,17.91 -11.16,36.9 -11.16,56.96 0,19.82 3.35,38.61 11.35,56.39 8,17.79 18.99,33.54 32.96,47.25 13.97,13.72 30.95,23.87 49.1,31.51 14.07,5.92 26.85,8.57 46.41,9.04 16.53,0.4 34.82,-1.7 48.68,-5.35 12.53,-3.29 26.45,-8.66 32.29,-12.01l6.88 -20.36c-10.4,5.17 -26.01,11.8 -41.03,15.87 -11.98,3.25 -26.26,5.97 -43.79,5.6 -15.02,-0.32 -26.91,-1.93 -43.67,-8.87 -16.44,-6.8 -30.61,-16.82 -43.06,-28.76 -12.19,-11.94 -21.65,-25.6 -28.38,-40.96 -6.73,-15.37 -10.75,-31.31 -10.75,-47.82 0,-17.28 3.21,-35.22 10.07,-51.22 6.86,-16.01 17.19,-28.93 29.25,-41.37 12.07,-12.45 25.87,-22.31 41.92,-28.89 16.4,-6.72 32.18,-9.07 47.33,-9.02 16.05,0.05 33.84,4.19 48.45,9.66 18.4,6.9 37.16,17.98 45.96,25.23l-9.92 -26.6zm289.1 260.74l15.8 -0.21 -137.85 -314.74 -139.09 314.95 16.63 0 122.25 -276.91 122.26 276.91zm116.88 -135.27c17.3,-1.02 32.08,-7.2 44.6,-18.46 16.27,-14.62 22.18,-34.22 22.32,-54.36 0.09,-12.57 -1.95,-24.06 -6.96,-34.75 -5.01,-10.68 -11.23,-19.85 -21.71,-26.77 -9.3,-6.15 -19.09,-10.12 -29.66,-11.76 -10.56,-1.63 -23.84,-2.72 -40.1,-2.72l-38.2 0 0 284.43 17 -0.16 -0.47 -134.51 35 -0.08 84.69 134.12 19.61 0.24 -86.12 -135.22zm-53.1 -15.56l0.4 -116.14 15.1 -0.14c14.36,-0.13 25.81,0.24 33.8,0.99 7.99,0.76 16.02,2.23 22.31,4.87 10.51,4.4 17.66,11.68 23.22,21.11 5.55,9.43 8.05,19.68 8.05,30.74 0,8.8 -1.14,17.72 -4.79,25.65 -3.66,7.91 -8.36,15.06 -15.34,20.42 -7.1,5.45 -15.49,9.2 -23.75,10.83 -8.26,1.63 -18.73,1.67 -30.92,1.67l-28.08 0zm-186.13 149.6l44.99 0 -10.26 -23.96 -11.6 0 -1.9 -3.23 -1.9 0 -0.95 -1.9 -9.13 0 -2.47 -2.85 -0.76 -4.18 0.38 -4 2.09 -13.49 0 -8.94 0 -11.03 2.28 -10.83 0.38 -7.04 -0.76 -8.74 0.57 -4.18 2.1 -0.19 2.85 -4.95 2.09 -10.07 0.76 -8.94 -0.38 -6.65 -4.56 -3.61 -4.38 -0.95 -3.23 -2.48 -0.95 -3.04 0.76 -2.85 1.52 -3.8 0 -6.27 -1.52 -2.67 -2.66 -1.71 -3.36 -0.38 -3.35 0.38 -2.66 1.71 -1.52 2.67 0 6.27 1.52 3.8 0.76 2.85 -0.95 3.04 -3.23 2.48 -4.38 0.95 -4.56 3.61 -0.38 6.65 0.76 8.94 2.09 10.07 2.85 4.95 2.09 0.19 0.58 4.18 -0.77 8.74 0.39 7.04 2.28 10.83 0 11.03 0 8.94 2.09 13.49 0.38 4 -0.76 4.18 -2.47 2.85 -9.13 0 -0.95 1.9 -1.9 0 -1.9 3.23 -11.6 0 -10.27 23.96 44.99 0zm488.64 -262.04c-3.64,-3.46 -7.77,-7.79 -18.49,-12.92 -14.05,-6.73 -26.63,-9.04 -41.11,-9.17 -19.39,-0.17 -39.76,10.36 -48.05,19.03 -13.34,13.96 -19.96,28.19 -20.06,51.04 -0.08,17.53 8.2,35.88 29.55,50.25 14.81,9.98 24.51,16.05 41.22,23.49 9.8,4.37 27.98,14.6 33.78,18.45 16.83,11.18 29.99,26.23 31.35,45.32 1.29,18.26 -7.24,35.54 -20.49,48.03 -13.47,12.69 -30.7,17.59 -49.2,17.59 -16.51,0 -29.43,-3.11 -42.46,-12.04 -12.31,-8.43 -23.42,-21.24 -31.63,-36.56l-6.52 18.26c5.51,11 15.42,23.44 28.71,32.08 15.67,10.18 30.9,14.56 50.46,14.56 23.15,0 45.1,-6.2 62.34,-21.63 17.2,-15.41 27.51,-35.58 26.57,-58.77 -1.02,-24.87 -13.03,-42 -32.6,-56.64 -13.49,-10.09 -28.86,-17.18 -41.82,-23.15 -7.39,-3.41 -26.11,-13.57 -32.91,-17.84 -14.64,-9.18 -30.1,-23.61 -30.1,-42.16 0,-15.24 4.92,-27.49 15.12,-38.36 9.05,-9.65 24.43,-14.65 38.48,-14.48 12.96,0.16 23.24,3.22 33.21,8.26 10.54,5.33 22.13,12.87 33.39,22.77l-8.74 -25.41z"/>
  <g id="_2458591767504">
   <path class="fil2" d="M378.74 117.43c-19.41,0 -38.01,3.74 -55.8,11.2 -17.79,7.47 -33.47,17.92 -47.03,31.36 -13.56,13.43 -24.14,28.92 -31.73,46.46 -7.58,17.55 -11.38,36.02 -11.38,55.43 0,19.41 3.86,37.89 11.57,55.43 7.72,17.54 18.35,33.03 31.91,46.47 13.56,13.44 29.18,23.89 46.85,31.35 17.66,7.47 36.2,11.2 55.61,11.2 19.41,0 38.01,-3.73 55.8,-11.2 17.79,-7.46 33.47,-17.91 47.03,-31.35 13.56,-13.44 24.14,-28.93 31.73,-46.47 7.58,-17.54 11.38,-36.02 11.38,-55.43 0,-19.41 -3.8,-37.88 -11.38,-55.43 -7.59,-17.54 -18.17,-33.03 -31.73,-46.46 -13.56,-13.44 -29.24,-23.89 -47.03,-31.36 -17.79,-7.46 -36.39,-11.2 -55.8,-11.2zm0 16.8c17.17,0 33.53,3.3 49.08,9.89 15.55,6.6 29.3,15.87 41.25,27.81 11.94,11.94 21.21,25.69 27.8,41.24 6.6,15.55 9.89,31.79 9.89,48.71 0,16.92 -3.36,33.16 -10.07,48.71 -6.72,15.55 -15.99,29.24 -27.81,41.06 -11.82,11.82 -25.51,21.08 -41.06,27.8 -15.55,6.72 -31.91,10.08 -49.08,10.08 -17.17,0 -33.53,-3.36 -49.08,-10.08 -15.56,-6.72 -29.24,-15.98 -41.06,-27.8 -11.82,-11.82 -21.09,-25.45 -27.81,-40.87 -6.71,-15.43 -10.07,-31.73 -10.07,-48.9 0,-17.17 3.36,-33.47 10.07,-48.9 6.72,-15.42 15.99,-29.11 27.81,-41.05 11.82,-11.94 25.5,-21.21 41.06,-27.81 15.55,-6.59 31.91,-9.89 49.08,-9.89zm311.32 5.42c-3.64,-3.46 -7.77,-7.79 -18.49,-12.92 -14.06,-6.73 -26.63,-9.04 -41.11,-9.17 -19.39,-0.17 -39.76,10.36 -48.05,19.03 -13.34,13.96 -19.96,28.19 -20.07,51.04 -0.08,17.53 8.21,35.88 29.56,50.25 14.8,9.98 24.51,16.05 41.22,23.49 9.8,4.37 27.97,14.6 33.77,18.45 16.84,11.18 30,26.23 31.35,45.32 1.3,18.26 -7.23,35.54 -20.49,48.03 -13.47,12.69 -30.69,17.59 -49.19,17.59 -16.51,0 -29.43,-3.11 -42.47,-12.04 -12.3,-8.43 -23.41,-21.24 -31.63,-36.56l-6.51 18.26c5.5,11 15.41,23.44 28.7,32.08 15.68,10.18 30.91,14.56 50.47,14.56 23.14,0 45.1,-6.2 62.34,-21.63 17.2,-15.41 27.51,-35.58 26.56,-58.77 -1.01,-24.87 -13.03,-42 -32.6,-56.64 -13.48,-10.09 -28.85,-17.18 -41.81,-23.15 -7.4,-3.41 -26.11,-13.57 -32.91,-17.84 -14.64,-9.18 -30.1,-23.61 -30.1,-42.16 0,-15.24 4.91,-27.49 15.11,-38.36 9.06,-9.65 24.43,-14.65 38.49,-14.48 12.95,0.16 23.24,3.22 33.21,8.26 10.54,5.33 22.13,12.87 33.39,22.77l-8.74 -25.41zm285.12 2.53c-5.69,-2.96 -16.93,-9.81 -33.88,-15.93 -16.1,-5.81 -32.73,-8.73 -50,-8.85 -18.75,-0.13 -36.01,3.16 -53.38,9.58 -18.46,6.84 -34.89,17.76 -48.86,31.48 -13.97,13.72 -24.89,29.53 -32.77,47.44 -7.87,17.91 -11.16,36.9 -11.16,56.96 0,19.82 3.35,38.61 11.35,56.39 8,17.79 18.99,33.54 32.96,47.25 13.97,13.72 30.95,23.87 49.1,31.51 14.07,5.92 26.85,8.57 46.41,9.04 16.53,0.4 34.82,-1.7 48.68,-5.35 12.53,-3.29 26.45,-8.66 32.29,-12.01l6.88 -20.36c-10.4,5.17 -26.01,11.8 -41.03,15.87 -11.98,3.25 -26.26,5.97 -43.79,5.6 -15.02,-0.32 -26.91,-1.93 -43.67,-8.87 -16.44,-6.8 -30.61,-16.82 -43.06,-28.76 -12.19,-11.94 -21.65,-25.6 -28.38,-40.96 -6.73,-15.37 -10.75,-31.31 -10.75,-47.82 0,-17.28 3.21,-35.22 10.07,-51.22 6.86,-16.01 17.19,-28.93 29.25,-41.37 12.07,-12.45 25.87,-22.31 41.92,-28.89 16.4,-6.72 32.18,-9.07 47.33,-9.02 16.05,0.05 33.84,4.19 48.45,9.66 18.4,6.9 37.16,17.98 45.96,25.23l-9.92 -26.6zm289.1 260.74l15.8 -0.21 -137.85 -314.74 -139.09 314.95 16.63 0 122.25 -276.91 122.26 276.91zm116.88 -135.27c17.3,-1.02 32.08,-7.2 44.6,-18.46 16.27,-14.62 22.18,-34.22 22.32,-54.36 0.09,-12.57 -1.95,-24.06 -6.96,-34.75 -5.01,-10.68 -11.23,-19.85 -21.71,-26.77 -9.3,-6.15 -19.09,-10.12 -29.66,-11.76 -10.56,-1.63 -23.84,-2.72 -40.1,-2.72l-38.2 0 0 284.43 17 -0.16 -0.47 -134.51 35 -0.08 84.69 134.12 19.61 0.24 -86.12 -135.22zm-53.1 -15.56l0.4 -116.14 15.1 -0.14c14.36,-0.13 25.81,0.24 33.8,0.99 7.99,0.76 16.02,2.23 22.31,4.87 10.51,4.4 17.66,11.68 23.22,21.11 5.55,9.43 8.05,19.68 8.05,30.74 0,8.8 -1.14,17.72 -4.79,25.65 -3.66,7.91 -8.36,15.06 -15.34,20.42 -7.1,5.45 -15.49,9.2 -23.75,10.83 -8.26,1.63 -18.73,1.67 -30.92,1.67l-28.08 0zm-186.13 149.6l44.99 0 -10.26 -23.96 -11.6 0 -1.9 -3.23 -1.9 0 -0.95 -1.9 -9.13 0 -2.47 -2.85 -0.76 -4.18 0.38 -4 2.09 -13.49 0 -8.94 0 -11.03 2.28 -10.83 0.38 -7.04 -0.76 -8.74 0.57 -4.18 2.1 -0.19 2.85 -4.95 2.09 -10.07 0.76 -8.94 -0.38 -6.65 -4.56 -3.61 -4.38 -0.95 -3.23 -2.48 -0.95 -3.04 0.76 -2.85 1.52 -3.8 0 -6.27 -1.52 -2.67 -2.66 -1.71 -3.36 -0.38 -3.35 0.38 -2.66 1.71 -1.52 2.67 0 6.27 1.52 3.8 0.76 2.85 -0.95 3.04 -3.23 2.48 -4.38 0.95 -4.56 3.61 -0.38 6.65 0.76 8.94 2.09 10.07 2.85 4.95 2.09 0.19 0.58 4.18 -0.77 8.74 0.39 7.04 2.28 10.83 0 11.03 0 8.94 2.09 13.49 0.38 4 -0.76 4.18 -2.47 2.85 -9.13 0 -0.95 1.9 -1.9 0 -1.9 3.23 -11.6 0 -10.27 23.96 44.99 0zm488.64 -262.04c-3.64,-3.46 -7.77,-7.79 -18.49,-12.92 -14.05,-6.73 -26.63,-9.04 -41.11,-9.17 -19.39,-0.17 -39.76,10.36 -48.05,19.03 -13.34,13.96 -19.96,28.19 -20.06,51.04 -0.08,17.53 8.2,35.88 29.55,50.25 14.81,9.98 24.51,16.05 41.22,23.49 9.8,4.37 27.98,14.6 33.78,18.45 16.83,11.18 29.99,26.23 31.35,45.32 1.29,18.26 -7.24,35.54 -20.49,48.03 -13.47,12.69 -30.7,17.59 -49.2,17.59 -16.51,0 -29.43,-3.11 -42.46,-12.04 -12.31,-8.43 -23.42,-21.24 -31.63,-36.56l-6.52 18.26c5.51,11 15.42,23.44 28.71,32.08 15.67,10.18 30.9,14.56 50.46,14.56 23.15,0 45.1,-6.2 62.34,-21.63 17.2,-15.41 27.51,-35.58 26.57,-58.77 -1.02,-24.87 -13.03,-42 -32.6,-56.64 -13.49,-10.09 -28.86,-17.18 -41.82,-23.15 -7.39,-3.41 -26.11,-13.57 -32.91,-17.84 -14.64,-9.18 -30.1,-23.61 -30.1,-42.16 0,-15.24 4.92,-27.49 15.12,-38.36 9.05,-9.65 24.43,-14.65 38.48,-14.48 12.96,0.16 23.24,3.22 33.21,8.26 10.54,5.33 22.13,12.87 33.39,22.77l-8.74 -25.41z"/>
   <path class="fil3" d="M1683.17 381.32c6.43,0 11.65,5.21 11.65,11.64 0,6.43 -5.22,11.65 -11.65,11.65 -6.42,0 -11.64,-5.22 -11.64,-11.65 0,-6.43 5.22,-11.64 11.64,-11.64zm0 1.76c5.46,0 9.88,4.43 9.88,9.88 0,5.46 -4.42,9.88 -9.88,9.88 -5.45,0 -9.87,-4.42 -9.87,-9.88 0,-5.45 4.42,-9.88 9.87,-9.88z"/>
   <path class="fil3" d="M1680.01 399.61l0 -13.51 3.17 0c0.9,0 1.57,0.05 1.99,0.15 0.42,0.1 0.79,0.27 1.11,0.52 0.4,0.31 0.71,0.73 0.93,1.26 0.23,0.53 0.34,1.11 0.34,1.75 0,1.1 -0.31,1.95 -0.93,2.52 -0.62,0.58 -1.52,0.86 -2.72,0.86l-0.28 0 5.15 6.45 -2.04 0 -4.93 -6.45 -0.23 0 0 6.45 -1.56 0zm1.56 -12.15l0 4.51 1.23 0c1.26,0 2.1,-0.16 2.52,-0.48 0.43,-0.32 0.64,-0.89 0.64,-1.69 0,-0.87 -0.22,-1.47 -0.66,-1.82 -0.43,-0.35 -1.27,-0.52 -2.5,-0.52l-1.23 0z"/>
  </g>
  <rect class="fil4" x="-136.02" y="570.04" width="2442.65" height="5.76"/>
 </g>
</svg>
