<?xml version="1.0" encoding="UTF-8"?>
<!DOCTYPE svg PUBLIC "-//W3C//DTD SVG 1.1//EN" "http://www.w3.org/Graphics/SVG/1.1/DTD/svg11.dtd">
<!-- Creator: CorelDRAW 2019 (64-Bit) -->
<svg xmlns="http://www.w3.org/2000/svg" xml:space="preserve" width="1928px" height="505px" version="1.1" style="shape-rendering:geometricPrecision; text-rendering:geometricPrecision; image-rendering:optimizeQuality; fill-rule:evenodd; clip-rule:evenodd"
viewBox="0 0 1885.89 494.2"
 xmlns:xlink="http://www.w3.org/1999/xlink"
 xmlns:xodm="http://www.corel.com/coreldraw/odm/2003">
 <defs>
  <style type="text/css">
   <![CDATA[
    .str0 {stroke:red;stroke-width:65.2;stroke-miterlimit:2.61313}
    .fil3 {fill:none}
    .fil2 {fill:#C9A646}
    .fil1 {fill:#C9A646;fill-rule:nonzero}
    .fil0 {fill:white;fill-rule:nonzero}
   ]]>
  </style>
 </defs>
 <g id="Logo">
  <metadata id="CorelCorpID_0Corel-Layer"/>
  <path class="fil0" d="M236.24 410.79c1.08,-21.46 -16.78,-28.72 -45.97,-28.72l-55.81 0 -5.58 110.17c9.16,0.81 22.23,0.65 30.81,0l1.73 -34.19 25.01 0c29.19,0 47.79,-7.42 48.86,-28.55l0.95 -18.71zm-31.42 12.09c-0.44,8.71 -8.25,10 -17.61,10l-24.51 0 1.28 -25.32 24.51 0c9.52,0 17.03,1.45 16.59,10.16l-0.26 5.16z"/>
  <path id="1" class="fil0" d="M360 409.98c1.03,-20.49 -16.82,-27.91 -46.01,-27.91l-55.82 0 -5.57 110.17c9.17,0.65 21.59,0.65 30.81,0l1.81 -35.81 21.62 0c7.47,11.78 13.28,24.36 18.19,35.81 9.16,0.65 23.68,0.65 32.9,0 -5.33,-12.58 -11.89,-26.45 -19.96,-39.03 12.79,-4.03 20.43,-11.62 21.09,-24.68l0.94 -18.55zm-31.39 11.45c-0.44,8.71 -8.24,9.84 -17.6,9.84l-24.51 0 1.19 -23.71 24.52 0c9.52,0 17.04,1.13 16.6,9.84l-0.2 4.03z"/>
  <path id="2" class="fil0" d="M467.3 492.24c1.16,-7.09 1.69,-17.58 1.25,-24.68l-58.56 0 0.93 -18.38 56.94 0c1.17,-7.1 1.68,-17.26 1.23,-24.36l-56.94 0 0.93 -18.23 58.55 0c1.17,-7.1 1.69,-17.42 1.24,-24.52l-89.36 0 -5.57 110.17 89.36 0z"/>
  <path id="3" class="fil0" d="M547.79 492.24c30,0 48.77,-7.58 49.89,-29.68l2.58 -50.97c1.11,-22.1 -16.9,-29.52 -46.74,-29.52l-58.71 0 -5.58 110.17 58.56 0zm19.38 -35.64c-0.41,8.22 -8.39,9.67 -17.91,9.67l-27.9 0 2.97 -58.71 27.9 0c9.68,0 17.35,1.45 16.91,10.16l-1.97 38.88z"/>
  <path id="4" class="fil0" d="M618.12 492.24c8.84,0.65 22.22,0.65 30.8,0l5.58 -110.17c-8.52,-0.64 -21.91,-0.64 -30.81,0l-5.57 110.17z"/>
  <path id="5" class="fil0" d="M672.31 463.53c-1.17,23.23 20.71,30.65 54.1,30.65 10.17,0 25.24,-1.45 41.2,-4.52 0.42,-8.22 0.21,-16.77 -1.02,-24.35 -10.57,1.61 -24.52,3.06 -33.39,3.06 -17.42,0 -30.3,-0.48 -29.7,-12.26l1.96 -38.87c0.58,-11.45 13.5,-11.78 30.92,-11.78 10.01,0 21.1,0.65 32.97,2.1 1.16,-7.1 1.68,-17.42 1.24,-24.52 -15.21,-2.26 -26.3,-3.06 -38.4,-3.06 -33.39,0 -56.03,7.42 -57.2,30.64l-2.68 52.91z"/>
  <path id="6" class="fil0" d="M818.45 492.24c8.84,0.65 22.23,0.65 30.81,0l4.33 -85.49 37.9 0c1.17,-7.09 1.7,-17.58 1.25,-24.68l-106.62 0c-1.17,7.1 -1.7,17.59 -1.25,24.68l37.91 0 -4.33 85.49z"/>
  <path id="7" class="fil0" d="M903.46 492.24c8.84,0.65 22.23,0.65 30.81,0l5.57 -110.17c-8.52,-0.64 -21.9,-0.64 -30.81,0l-5.57 110.17z"/>
  <path id="8" class="fil0" d="M1069.67 411.27c1.18,-23.39 -20.2,-31.29 -53.1,-31.29 -32.91,0 -55.08,7.9 -56.27,31.29l-2.6 51.46c-1.19,23.55 20.19,31.45 53.09,31.45 32.91,0 55.08,-7.9 56.27,-31.45l2.61 -51.46zm-33.07 44.68c-0.57,11.13 -10.95,12.26 -24.5,12.26 -13.55,0 -23.81,-1.13 -23.25,-12.26l1.94 -38.23c0.57,-11.29 10.94,-12.26 24.49,-12.26 13.55,0 23.82,0.97 23.25,12.26l-1.93 38.23z"/>
  <path id="9" class="fil0" d="M1163.64 492.24c11.42,0.65 22.07,0.65 33.55,0l5.57 -110.17c-10.13,-0.64 -19.8,-0.64 -30.8,0l-3.41 67.43 -42.56 -67.43c-10.62,-0.64 -22.23,-0.64 -32.91,0l-5.57 110.17c9.63,0.97 21.08,0.97 30.81,0l3.32 -65.65 42 65.65z"/>
  <path class="fil0" d="M1354.73 493.23c8.84,0.65 23.03,0.65 31.94,0l-40.89 -110.16c-9.16,-0.65 -20.45,-0.65 -29.68,0l-52.02 110.16c8.84,0.65 22.71,0.65 31.61,0l8.03 -18.38 44.84 0 6.17 18.38zm-14.3 -42.58l-26.29 0 14.95 -34.2 11.34 34.2z"/>
  <path id="1" class="fil0" d="M1509.22 410.97c1.04,-20.49 -16.81,-27.9 -46.01,-27.9l-55.81 0 -5.57 110.16c9.16,0.65 21.58,0.65 30.81,0l1.81 -35.8 21.61 0c7.47,11.77 13.29,24.35 18.19,35.8 9.16,0.65 23.68,0.65 32.91,0 -5.34,-12.58 -11.89,-26.45 -19.96,-39.03 12.78,-4.03 20.42,-11.61 21.08,-24.68l0.94 -18.55zm-31.39 11.45c-0.44,8.71 -8.24,9.84 -17.59,9.84l-24.52 0 1.2 -23.71 24.52 0c9.51,0 17.04,1.13 16.6,9.84l-0.21 4.03z"/>
  <path id="2" class="fil0" d="M1616.52 493.23c1.16,-7.09 1.69,-17.58 1.25,-24.68l-58.55 0 0.93 -18.38 56.93 0c1.17,-7.1 1.68,-17.26 1.24,-24.36l-56.94 0 0.92 -18.23 58.55 0c1.17,-7.09 1.69,-17.42 1.24,-24.51l-89.36 0 -5.57 110.16 89.36 0z"/>
  <path id="3" class="fil0" d="M1714.59 493.23c11.42,0.65 22.06,0.65 33.55,0l5.57 -110.16c-10.13,-0.65 -19.81,-0.65 -30.81,0l-3.41 67.42 -42.56 -67.42c-10.61,-0.65 -22.22,-0.65 -32.9,0l-5.57 110.16c9.62,0.97 21.08,0.97 30.8,0l3.32 -65.65 42.01 65.65z"/>
  <path id="4" class="fil0" d="M1853.95 493.23c8.84,0.65 23.04,0.65 31.94,0l-40.88 -110.16c-9.16,-0.65 -20.46,-0.65 -29.68,0l-52.03 110.16c8.84,0.65 22.71,0.65 31.62,0l8.02 -18.38 44.85 0 6.16 18.38zm-14.3 -42.58l-26.29 0 14.96 -34.2 11.33 34.2z"/>
  <path class="fil0" d="M242.62 39.29c-22.87,0 -44.78,4.4 -65.74,13.19 -20.96,8.8 -39.43,21.11 -55.4,36.94 -15.98,15.83 -28.44,34.08 -37.38,54.75 -8.94,20.67 -13.41,42.43 -13.41,65.3 0,22.86 4.54,44.63 13.63,65.3 9.09,20.66 21.62,38.91 37.6,54.74 15.97,15.83 34.37,28.15 55.18,36.94 20.82,8.79 42.65,13.19 65.52,13.19 22.87,0 44.78,-4.4 65.74,-13.19 20.96,-8.79 39.43,-21.11 55.41,-36.94 15.98,-15.83 28.43,-34.08 37.38,-54.74 8.94,-20.67 13.41,-42.44 13.41,-65.3 0,-22.87 -4.47,-44.63 -13.41,-65.3 -8.95,-20.67 -21.4,-38.92 -37.38,-54.75 -15.98,-15.83 -34.45,-28.14 -55.41,-36.94 -20.96,-8.79 -42.87,-13.19 -65.74,-13.19zm0 19.79c20.23,0 39.51,3.88 57.83,11.65 18.32,7.77 34.52,18.69 48.59,32.76 14.07,14.08 24.99,30.27 32.76,48.59 7.77,18.32 11.65,37.45 11.65,57.39 0,19.93 -3.96,39.06 -11.87,57.38 -7.92,18.32 -18.84,34.45 -32.76,48.37 -13.93,13.93 -30.05,24.85 -48.37,32.76 -18.32,7.92 -37.6,11.88 -57.83,11.88 -20.22,0 -39.5,-3.96 -57.82,-11.88 -18.32,-7.91 -34.45,-18.83 -48.37,-32.76 -13.93,-13.92 -24.85,-29.97 -32.76,-48.15 -7.92,-18.18 -11.88,-37.38 -11.88,-57.6 0,-20.23 3.96,-39.43 11.88,-57.61 7.91,-18.17 18.83,-34.29 32.76,-48.37 13.92,-14.07 30.05,-24.99 48.37,-32.76 18.32,-7.77 37.6,-11.65 57.82,-11.65zm366.77 6.38c-4.28,-4.08 -9.15,-9.18 -21.78,-15.22 -16.56,-7.92 -31.37,-10.65 -48.43,-10.8 -22.84,-0.2 -46.84,12.21 -56.61,22.42 -15.72,16.44 -23.52,33.21 -23.64,60.13 -0.09,20.66 9.66,42.27 34.82,59.2 17.44,11.75 28.88,18.91 48.56,27.68 11.55,5.14 32.96,17.19 39.79,21.73 19.83,13.17 35.34,30.9 36.94,53.39 1.52,21.51 -8.53,41.87 -24.14,56.59 -15.87,14.95 -36.17,20.72 -57.96,20.72 -19.45,0 -34.67,-3.67 -50.03,-14.19 -14.5,-9.93 -27.58,-25.01 -37.26,-43.07l-7.68 21.51c6.49,12.96 18.16,27.63 33.82,37.8 18.46,11.99 36.41,17.16 59.45,17.16 27.27,0 53.13,-7.31 73.44,-25.49 20.27,-18.15 32.42,-41.91 31.3,-69.23 -1.19,-29.31 -15.35,-49.49 -38.4,-66.74 -15.89,-11.88 -34,-20.24 -49.27,-27.27 -8.71,-4.02 -30.76,-15.99 -38.76,-21.01 -17.26,-10.82 -35.47,-27.83 -35.47,-49.68 0,-17.95 5.79,-32.38 17.81,-45.19 10.67,-11.36 28.78,-17.25 45.34,-17.05 15.26,0.18 27.38,3.78 39.12,9.72 12.42,6.28 26.07,15.16 39.34,26.83l-10.3 -29.94zm335.91 2.98c-6.7,-3.48 -19.95,-11.56 -39.92,-18.76 -18.96,-6.84 -38.55,-10.28 -58.9,-10.43 -22.09,-0.15 -42.43,3.72 -62.88,11.29 -21.76,8.05 -41.11,20.93 -57.57,37.09 -16.46,16.15 -29.33,34.78 -38.61,55.88 -9.27,21.1 -13.14,43.47 -13.14,67.11 0,23.35 3.94,45.49 13.37,66.44 9.43,20.95 22.37,39.5 38.83,55.66 16.46,16.16 36.46,28.12 57.84,37.12 16.58,6.98 31.64,10.1 54.68,10.65 19.47,0.47 41.02,-2 57.35,-6.3 14.76,-3.88 31.17,-10.2 38.04,-14.15l8.11 -23.99c-12.26,6.1 -30.65,13.91 -48.34,18.7 -14.12,3.83 -30.94,7.03 -51.6,6.6 -17.68,-0.37 -31.7,-2.27 -51.44,-10.45 -19.37,-8.02 -36.06,-19.82 -50.72,-33.89 -14.37,-14.06 -25.52,-30.15 -33.45,-48.25 -7.93,-18.11 -12.66,-36.89 -12.66,-56.34 0,-20.35 3.78,-41.49 11.86,-60.35 8.08,-18.85 20.25,-34.07 34.47,-48.73 14.21,-14.67 30.47,-26.29 49.38,-34.03 19.32,-7.92 37.91,-10.69 55.76,-10.63 18.91,0.05 39.87,4.94 57.08,11.38 21.68,8.12 43.78,21.19 54.15,29.72l-11.69 -31.34zm340.59 307.19l18.61 -0.24 -162.39 -370.82 -163.87 371.06 19.6 0 144.02 -326.24 144.03 326.24zm137.7 -159.37c20.39,-1.2 37.79,-8.48 52.55,-21.74 19.17,-17.23 26.13,-40.32 26.29,-64.04 0.11,-14.82 -2.3,-28.36 -8.2,-40.95 -5.9,-12.58 -13.23,-23.38 -25.57,-31.53 -10.96,-7.25 -22.49,-11.93 -34.94,-13.86 -12.45,-1.92 -28.1,-3.2 -47.25,-3.2l-45 0 0 335.09 20.02 -0.19 -0.55 -158.47 41.23 -0.09 99.78 158.01 23.1 0.27 -101.46 -159.3zm-62.56 -18.33l0.47 -136.83 17.79 -0.16c16.92,-0.16 30.41,0.29 39.82,1.17 9.41,0.89 18.88,2.63 26.29,5.73 12.38,5.19 20.81,13.77 27.35,24.87 6.54,11.11 9.49,23.19 9.49,36.22 0,10.37 -1.34,20.88 -5.65,30.21 -4.31,9.33 -9.84,17.75 -18.07,24.06 -8.37,6.43 -18.24,10.84 -27.97,12.76 -9.74,1.92 -22.07,1.97 -36.43,1.97l-33.09 0zm-219.27 176.24l53 0 -12.1 -28.22 -13.66 0 -2.24 -3.8 -2.24 0 -1.12 -2.24 -10.75 0 -2.91 -3.36 -0.9 -4.93 0.45 -4.7 2.47 -15.91 0 -10.52 0 -12.99 2.68 -12.77 0.45 -8.29 -0.89 -10.3 0.67 -4.93 2.46 -0.22 3.36 -5.82 2.47 -11.87 0.89 -10.53 -0.45 -7.84 -5.37 -4.25 -5.15 -1.13 -3.81 -2.91 -1.12 -3.58 0.89 -3.36 1.8 -4.48 0 -7.39 -1.8 -3.14 -3.13 -2.01 -3.95 -0.45 -3.96 0.45 -3.13 2.01 -1.79 3.14 0 7.39 1.79 4.48 0.89 3.36 -1.12 3.58 -3.8 2.91 -5.16 1.13 -5.37 4.25 -0.45 7.84 0.9 10.53 2.46 11.87 3.36 5.82 2.46 0.22 0.68 4.93 -0.9 10.3 0.45 8.29 2.69 12.77 0 12.99 0 10.52 2.46 15.91 0.45 4.7 -0.9 4.93 -2.91 3.36 -10.75 0 -1.12 2.24 -2.24 0 -2.24 3.8 -13.66 0 -12.1 28.22 53.01 0zm575.67 -308.71c-4.29,-4.08 -9.16,-9.18 -21.78,-15.22 -16.56,-7.92 -31.38,-10.65 -48.44,-10.8 -22.84,-0.2 -46.84,12.21 -56.6,22.42 -15.72,16.44 -23.52,33.21 -23.64,60.13 -0.1,20.66 9.66,42.27 34.81,59.2 17.45,11.75 28.88,18.91 48.57,27.68 11.54,5.14 32.95,17.19 39.79,21.73 19.83,13.17 35.33,30.9 36.93,53.39 1.53,21.51 -8.52,41.87 -24.14,56.59 -15.87,14.95 -36.17,20.72 -57.96,20.72 -19.45,0 -34.67,-3.67 -50.03,-14.19 -14.49,-9.93 -27.58,-25.01 -37.26,-43.07l-7.67 21.51c6.48,12.96 18.16,27.63 33.81,37.8 18.47,11.99 36.41,17.16 59.46,17.16 27.27,0 53.13,-7.31 73.44,-25.49 20.26,-18.15 32.42,-41.91 31.3,-69.23 -1.2,-29.31 -15.35,-49.49 -38.41,-66.74 -15.89,-11.88 -34,-20.24 -49.26,-27.27 -8.71,-4.02 -30.76,-15.99 -38.77,-21.01 -17.25,-10.82 -35.46,-27.83 -35.46,-49.68 0,-17.95 5.79,-32.38 17.8,-45.19 10.67,-11.36 28.78,-17.25 45.34,-17.05 15.26,0.18 27.38,3.78 39.13,9.72 12.42,6.28 26.07,15.16 39.34,26.83l-10.3 -29.94z"/>
  <g id="_2783276453104">
   <path class="fil1" d="M239.09 35.76c-22.87,0 -44.78,4.39 -65.74,13.19 -20.96,8.79 -39.43,21.11 -55.41,36.94 -15.97,15.83 -28.43,34.08 -37.38,54.74 -8.94,20.67 -13.41,42.44 -13.41,65.3 0,22.87 4.55,44.64 13.64,65.3 9.08,20.67 21.61,38.92 37.59,54.75 15.98,15.83 34.38,28.14 55.19,36.94 20.81,8.79 42.65,13.19 65.52,13.19 22.87,0 44.78,-4.4 65.74,-13.19 20.96,-8.8 39.43,-21.11 55.4,-36.94 15.98,-15.83 28.44,-34.08 37.38,-54.75 8.94,-20.66 13.41,-42.43 13.41,-65.3 0,-22.86 -4.47,-44.63 -13.41,-65.3 -8.94,-20.66 -21.4,-38.91 -37.38,-54.74 -15.97,-15.83 -34.44,-28.15 -55.4,-36.94 -20.96,-8.8 -42.87,-13.19 -65.74,-13.19zm0 19.78c20.23,0 39.5,3.89 57.82,11.66 18.33,7.77 34.52,18.69 48.59,32.76 14.07,14.07 24.99,30.26 32.76,48.59 7.77,18.32 11.66,37.45 11.66,57.38 0,19.94 -3.96,39.07 -11.88,57.39 -7.91,18.32 -18.83,34.44 -32.76,48.37 -13.92,13.92 -30.04,24.84 -48.37,32.76 -18.32,7.91 -37.59,11.87 -57.82,11.87 -20.23,0 -39.5,-3.96 -57.83,-11.87 -18.32,-7.92 -34.44,-18.84 -48.37,-32.76 -13.92,-13.93 -24.84,-29.98 -32.76,-48.15 -7.91,-18.18 -11.87,-37.38 -11.87,-57.61 0,-20.22 3.96,-39.43 11.87,-57.6 7.92,-18.18 18.84,-34.3 32.76,-48.37 13.93,-14.07 30.05,-24.99 48.37,-32.76 18.33,-7.77 37.6,-11.66 57.83,-11.66zm366.77 6.39c-4.29,-4.08 -9.16,-9.18 -21.78,-15.22 -16.56,-7.93 -31.38,-10.65 -48.44,-10.8 -22.84,-0.2 -46.84,12.2 -56.6,22.42 -15.72,16.44 -23.52,33.21 -23.64,60.12 -0.1,20.66 9.66,42.27 34.81,59.21 17.45,11.75 28.88,18.9 48.57,27.67 11.54,5.15 32.95,17.2 39.79,21.73 19.83,13.17 35.33,30.91 36.93,53.4 1.53,21.51 -8.52,41.87 -24.14,56.58 -15.87,14.95 -36.16,20.73 -57.96,20.73 -19.45,0 -34.66,-3.67 -50.02,-14.19 -14.5,-9.93 -27.59,-25.02 -37.27,-43.07l-7.67 21.51c6.48,12.96 18.16,27.62 33.81,37.79 18.47,12 36.41,17.16 59.46,17.16 27.27,0 53.13,-7.3 73.44,-25.49 20.26,-18.14 32.42,-41.91 31.3,-69.23 -1.2,-29.3 -15.35,-49.49 -38.41,-66.73 -15.89,-11.89 -34,-20.24 -49.26,-27.28 -8.71,-4.01 -30.76,-15.98 -38.77,-21 -17.25,-10.83 -35.46,-27.83 -35.46,-49.68 0,-17.96 5.79,-32.39 17.8,-45.19 10.67,-11.37 28.78,-17.26 45.34,-17.06 15.26,0.19 27.38,3.79 39.13,9.73 12.42,6.28 26.07,15.16 39.34,26.83l-10.3 -29.94zm335.9 2.98c-6.7,-3.48 -19.94,-11.56 -39.91,-18.77 -18.97,-6.84 -38.56,-10.28 -58.91,-10.42 -22.08,-0.16 -42.42,3.71 -62.88,11.29 -21.76,8.05 -41.11,20.92 -57.56,37.08 -16.46,16.16 -29.33,34.79 -38.61,55.89 -9.28,21.1 -13.15,43.47 -13.15,67.11 0,23.34 3.95,45.49 13.38,66.43 9.42,20.95 22.37,39.51 38.83,55.67 16.45,16.16 36.45,28.12 57.84,37.12 16.57,6.98 31.63,10.09 54.67,10.65 19.47,0.47 41.03,-2.01 57.35,-6.3 14.76,-3.88 31.17,-10.21 38.05,-14.15l8.11 -23.99c-12.26,6.1 -30.66,13.9 -48.35,18.7 -14.12,3.82 -30.93,7.03 -51.59,6.59 -17.69,-0.37 -31.7,-2.26 -51.44,-10.44 -19.37,-8.02 -36.06,-19.83 -50.73,-33.89 -14.36,-14.07 -25.51,-30.15 -33.44,-48.26 -7.93,-18.1 -12.67,-36.88 -12.67,-56.33 0,-20.36 3.79,-41.5 11.86,-60.35 8.09,-18.85 20.26,-34.08 34.47,-48.74 14.22,-14.66 30.48,-26.28 49.38,-34.03 19.33,-7.91 37.92,-10.68 55.76,-10.63 18.92,0.06 39.87,4.94 57.08,11.39 21.69,8.12 43.78,21.18 54.15,29.72l-11.69 -31.34zm340.6 307.19l18.61 -0.25 -162.4 -370.81 -163.86 371.06 19.59 0 144.03 -326.25 144.03 326.25zm137.7 -159.37c20.38,-1.2 37.79,-8.48 52.54,-21.75 19.17,-17.23 26.13,-40.31 26.3,-64.04 0.1,-14.81 -2.3,-28.35 -8.2,-40.94 -5.9,-12.59 -13.23,-23.38 -25.57,-31.54 -10.96,-7.24 -22.5,-11.93 -34.95,-13.85 -12.44,-1.92 -28.09,-3.21 -47.24,-3.21l-45.01 0 0 335.09 20.03 -0.18 -0.55 -158.47 41.23 -0.1 99.78 158.01 23.1 0.28 -101.46 -159.3zm-62.56 -18.34l0.47 -136.82 17.79 -0.17c16.92,-0.15 30.4,0.29 39.82,1.18 9.41,0.88 18.88,2.62 26.29,5.73 12.38,5.19 20.8,13.76 27.35,24.87 6.54,11.11 9.48,23.18 9.48,36.22 0,10.37 -1.33,20.87 -5.64,30.21 -4.31,9.33 -9.85,17.75 -18.07,24.06 -8.37,6.42 -18.25,10.83 -27.98,12.76 -9.73,1.92 -22.07,1.96 -36.43,1.96l-33.08 0zm-219.28 176.25l53 0 -12.09 -28.22 -13.66 0 -2.24 -3.81 -2.24 0 -1.12 -2.24 -10.75 0 -2.91 -3.36 -0.9 -4.92 0.45 -4.71 2.46 -15.9 0 -10.53 0 -12.99 2.69 -12.76 0.45 -8.29 -0.9 -10.3 0.67 -4.93 2.47 -0.22 3.36 -5.83 2.46 -11.87 0.9 -10.53 -0.45 -7.83 -5.38 -4.26 -5.15 -1.12 -3.81 -2.91 -1.12 -3.58 0.9 -3.36 1.79 -4.48 0 -7.39 -1.79 -3.14 -3.13 -2.02 -3.96 -0.44 -3.95 0.44 -3.14 2.02 -1.79 3.14 0 7.39 1.79 4.48 0.9 3.36 -1.12 3.58 -3.81 2.91 -5.15 1.12 -5.38 4.26 -0.44 7.83 0.89 10.53 2.47 11.87 3.36 5.83 2.46 0.22 0.67 4.93 -0.89 10.3 0.44 8.29 2.69 12.76 0 12.99 0 10.53 2.47 15.9 0.44 4.71 -0.89 4.92 -2.91 3.36 -10.76 0 -1.11 2.24 -2.24 0 -2.25 3.81 -13.66 0 -12.09 28.22 53 0zm575.68 -308.71c-4.29,-4.08 -9.16,-9.18 -21.79,-15.22 -16.56,-7.93 -31.37,-10.65 -48.43,-10.8 -22.84,-0.2 -46.84,12.2 -56.61,22.42 -15.71,16.44 -23.51,33.21 -23.64,60.12 -0.09,20.66 9.66,42.27 34.82,59.21 17.44,11.75 28.88,18.9 48.56,27.67 11.55,5.15 32.96,17.2 39.79,21.73 19.83,13.17 35.34,30.91 36.94,53.4 1.52,21.51 -8.53,41.87 -24.14,56.58 -15.87,14.95 -36.17,20.73 -57.96,20.73 -19.45,0 -34.67,-3.67 -50.03,-14.19 -14.5,-9.93 -27.58,-25.02 -37.26,-43.07l-7.68 21.51c6.49,12.96 18.16,27.62 33.82,37.79 18.47,12 36.41,17.16 59.45,17.16 27.27,0 53.14,-7.3 73.44,-25.49 20.27,-18.14 32.42,-41.91 31.3,-69.23 -1.19,-29.3 -15.35,-49.49 -38.4,-66.73 -15.89,-11.89 -34,-20.24 -49.27,-27.28 -8.71,-4.01 -30.75,-15.98 -38.76,-21 -17.26,-10.83 -35.47,-27.83 -35.47,-49.68 0,-17.96 5.79,-32.39 17.81,-45.19 10.67,-11.37 28.78,-17.26 45.34,-17.06 15.26,0.19 27.38,3.79 39.13,9.73 12.41,6.28 26.06,15.16 39.33,26.83l-10.29 -29.94z"/>
   <path class="fil2" d="M1775.87 346.65c7.57,0 13.72,6.14 13.72,13.71 0,7.58 -6.15,13.72 -13.72,13.72 -7.58,0 -13.72,-6.14 -13.72,-13.72 0,-7.57 6.14,-13.71 13.72,-13.71zm0 2.07c6.42,0 11.64,5.22 11.64,11.64 0,6.43 -5.22,11.64 -11.64,11.64 -6.43,0 -11.64,-5.21 -11.64,-11.64 0,-6.42 5.21,-11.64 11.64,-11.64z"/>
   <path class="fil2" d="M1772.13 368.19l0 -15.92 3.74 0c1.07,0 1.85,0.06 2.35,0.18 0.49,0.12 0.93,0.33 1.31,0.62 0.47,0.36 0.83,0.86 1.09,1.48 0.27,0.62 0.4,1.31 0.4,2.06 0,1.3 -0.37,2.3 -1.09,2.97 -0.73,0.68 -1.8,1.02 -3.21,1.02l-0.33 0 6.07 7.59 -2.4 0 -5.81 -7.59 -0.27 0 0 7.59 -1.85 0zm1.85 -14.32l0 5.33 1.44 0c1.49,0 2.48,-0.19 2.98,-0.58 0.5,-0.38 0.75,-1.04 0.75,-1.99 0,-1.02 -0.26,-1.73 -0.77,-2.14 -0.52,-0.41 -1.5,-0.62 -2.96,-0.62l-1.44 0z"/>
  </g>
  <path class="fil3 str0" d="M180.2 381.85c0,-13.36 -12.51,-41.29 -10.15,-52.86 9.56,-46.89 -34.91,-155.13 -62.05,-191.43 -31.75,-42.47 -35.12,-72.84 -53.41,-101.14 57.26,-9.02 330.14,1.45 346.69,-3.76m-258.76 159.52c40.27,-25.12 209.62,-42.22 222.33,-52.75m-192.18 236.14c95.44,-33.73 163.09,-50.24 265.04,-50.24m90.44 -273.83c-32.97,75.3 -2.52,102.63 -2.52,190.39 0,3.24 8.26,124.98 0.83,89.18 -0.07,-0.35 -3.34,-23.48 -3.34,-24.58m12.56 -246.2c6.98,100.81 105.52,160.96 105.52,182.14 6.08,-1.26 48.41,-151.63 68.36,-175.79 36.33,-43.98 15.36,-46.81 29.5,18.27 13.42,61.69 44.08,164.14 66.69,226.6m126.86 48.99c0,-76.52 -6.12,-144.54 -26.38,-218.56 -3.6,-13.16 5.03,-66.5 5.03,-83.73 -5.76,32.57 120.16,141.15 146.75,175.93 4.4,-0.99 19.13,-75.8 21.35,-82.98 3.14,-10.14 54.53,-110.59 48.88,-89.5 -8.32,31.11 20.27,151.43 23.76,200.86 1.25,17.66 6.17,61.81 11.74,77.88m27.63 -258.76c11.01,21.09 67.34,66.5 92.02,99.27 54.24,72.03 38.87,52.85 83.62,-10.51 54.37,-76.97 57.87,-75.99 135.77,-129.88 0.05,-0.04 3.18,-2.25 2.62,-2.84m-175.86 187.16c-17.76,31 -7.53,79.98 -7.53,114.31m401.95 -256.25c-28.62,-10.36 -120.5,-21.3 -142.26,4.31 -34.68,40.79 -25.3,90.98 -5.13,136.38 4.87,10.96 90.34,31.4 110.03,56.52 42.73,54.51 82.2,70.94 -17.47,116.71 -31.34,14.39 -117.34,30.34 -143.2,0.11 -22.54,-26.35 -68.26,-67.76 -68.26,-101.75"/>
 </g>
</svg>
