<?xml version="1.0" encoding="UTF-8"?>
<!DOCTYPE svg PUBLIC "-//W3C//DTD SVG 1.1//EN" "http://www.w3.org/Graphics/SVG/1.1/DTD/svg11.dtd">
<!-- Creator: CorelDRAW 2019 (64-Bit) -->
<svg xmlns="http://www.w3.org/2000/svg" xml:space="preserve" width="2000px" height="800px" version="1.1" style="shape-rendering:geometricPrecision; text-rendering:geometricPrecision; image-rendering:optimizeQuality; fill-rule:evenodd; clip-rule:evenodd"
viewBox="0 0 2000 800"
 xmlns:xlink="http://www.w3.org/1999/xlink"
 xmlns:xodm="http://www.corel.com/coreldraw/odm/2003">
 <defs>
  <style type="text/css">
   <![CDATA[
    .fil2 {fill:#C9A646}
    .fil1 {fill:#C9A646;fill-rule:nonzero}
    .fil0 {fill:white;fill-rule:nonzero}
   ]]>
  </style>
 </defs>
 <g id="Background">
  <metadata id="CorelCorpID_0Corel-Layer"/>
 </g>
 <g id="Logo">
  <metadata id="CorelCorpID_1Corel-Layer"/>
  <path class="fil0" d="M255.91 549.94c1.11,-21.93 -17.15,-29.36 -47,-29.36l-57.07 0 -5.7 112.65c9.36,0.82 22.73,0.66 31.51,0l1.76 -34.97 25.57 0c29.85,0 48.87,-7.58 49.96,-29.19l0.97 -19.13zm-32.13 12.37c-0.45,8.91 -8.43,10.23 -18,10.23l-25.07 0 1.31 -25.9 25.07 0c9.73,0 17.41,1.49 16.96,10.39l-0.27 5.28z"/>
  <path id="1" class="fil0" d="M382.44 549.12c1.06,-20.95 -17.19,-28.54 -47.04,-28.54l-57.06 0 -5.7 112.65c9.37,0.66 22.07,0.66 31.5,0l1.85 -36.62 22.1 0c7.64,12.04 13.58,24.91 18.6,36.62 9.37,0.66 24.21,0.66 33.64,0 -5.45,-12.87 -12.15,-27.05 -20.41,-39.91 13.08,-4.13 20.89,-11.88 21.56,-25.24l0.96 -18.96zm-32.09 11.71c-0.45,8.9 -8.42,10.06 -17.99,10.06l-25.07 0 1.23 -24.25 25.07 0c9.73,0 17.42,1.16 16.97,10.06l-0.21 4.13z"/>
  <path id="2" class="fil0" d="M492.15 633.23c1.19,-7.26 1.74,-17.98 1.28,-25.24l-59.87 0 0.95 -18.8 58.22 0c1.19,-7.25 1.72,-17.64 1.26,-24.9l-58.22 0 0.94 -18.64 59.87 0c1.19,-7.25 1.73,-17.81 1.27,-25.07l-91.37 0 -5.7 112.65 91.37 0z"/>
  <path id="3" class="fil0" d="M574.45 633.23c30.67,0 49.87,-7.76 51.01,-30.35l2.64 -52.11c1.14,-22.6 -17.28,-30.19 -47.79,-30.19l-60.03 0 -5.7 112.65 59.87 0zm19.82 -36.45c-0.43,8.41 -8.58,9.89 -18.31,9.89l-28.54 0 3.04 -60.03 28.53 0c9.9,0 17.74,1.49 17.29,10.39l-2.01 39.75z"/>
  <path id="4" class="fil0" d="M646.35 633.23c9.04,0.66 22.73,0.66 31.5,0l5.7 -112.65c-8.71,-0.66 -22.4,-0.66 -31.5,0l-5.7 112.65z"/>
  <path id="5" class="fil0" d="M701.77 603.87c-1.2,23.75 21.17,31.34 55.31,31.34 10.39,0 25.81,-1.49 42.13,-4.62 0.42,-8.41 0.2,-17.15 -1.05,-24.91 -10.81,1.65 -25.07,3.14 -34.14,3.14 -17.81,0 -30.98,-0.5 -30.37,-12.54l2.01 -39.74c0.59,-11.71 13.81,-12.04 31.62,-12.04 10.22,0 21.57,0.66 33.7,2.14 1.19,-7.25 1.72,-17.81 1.27,-25.07 -15.55,-2.31 -26.89,-3.13 -39.26,-3.13 -34.14,0 -57.28,7.59 -58.49,31.34l-2.73 54.09z"/>
  <path id="6" class="fil0" d="M851.19 633.23c9.04,0.66 22.72,0.66 31.5,0l4.42 -87.41 38.76 0c1.19,-7.26 1.73,-17.98 1.27,-25.24l-109.01 0c-1.19,7.26 -1.74,17.98 -1.28,25.24l38.76 0 -4.42 87.41z"/>
  <path id="7" class="fil0" d="M938.1 633.23c9.04,0.66 22.73,0.66 31.5,0l5.7 -112.65c-8.71,-0.66 -22.4,-0.66 -31.5,0l-5.7 112.65z"/>
  <path id="8" class="fil0" d="M1108.04 550.44c1.21,-23.92 -20.65,-32 -54.29,-32 -33.65,0 -56.32,8.08 -57.53,32l-2.66 52.61c-1.22,24.07 20.64,32.16 54.28,32.16 33.64,0 56.32,-8.09 57.54,-32.16l2.66 -52.61zm-33.81 45.68c-0.58,11.38 -11.19,12.53 -25.05,12.53 -13.85,0 -24.35,-1.15 -23.77,-12.53l1.98 -39.09c0.58,-11.54 11.18,-12.53 25.04,-12.53 13.85,0 24.36,0.99 23.77,12.53l-1.97 39.09z"/>
  <path id="9" class="fil0" d="M1204.12 633.23c11.68,0.66 22.56,0.66 34.31,0l5.69 -112.65c-10.35,-0.66 -20.25,-0.66 -31.5,0l-3.48 68.94 -43.52 -68.94c-10.85,-0.66 -22.73,-0.66 -33.64,0l-5.7 112.65c9.84,0.99 21.55,0.99 31.5,0l3.39 -67.13 42.95 67.13z"/>
  <path class="fil0" d="M1399.5 634.24c9.03,0.66 23.55,0.66 32.65,0l-41.8 -112.64c-9.37,-0.66 -20.91,-0.66 -30.34,0l-53.2 112.64c9.04,0.66 23.22,0.66 32.33,0l8.2 -18.8 45.85 0 6.31 18.8zm-14.62 -43.54l-26.89 0 15.3 -34.96 11.59 34.96z"/>
  <path id="1" class="fil0" d="M1557.46 550.13c1.06,-20.95 -17.2,-28.53 -47.05,-28.53l-57.06 0 -5.7 112.64c9.37,0.66 22.07,0.66 31.5,0l1.85 -36.61 22.1 0c7.64,12.04 13.59,24.9 18.6,36.61 9.37,0.66 24.21,0.66 33.65,0 -5.46,-12.87 -12.16,-27.05 -20.41,-39.91 13.07,-4.13 20.88,-11.88 21.56,-25.24l0.96 -18.96zm-32.1 11.71c-0.45,8.9 -8.42,10.06 -17.99,10.06l-25.06 0 1.22 -24.24 25.07 0c9.73,0 17.42,1.15 16.97,10.06l-0.21 4.12z"/>
  <path id="2" class="fil0" d="M1667.16 634.24c1.19,-7.26 1.73,-17.98 1.28,-25.23l-59.87 0 0.95 -18.81 58.22 0c1.19,-7.25 1.72,-17.64 1.26,-24.9l-58.22 0 0.94 -18.63 59.87 0c1.19,-7.26 1.73,-17.82 1.27,-25.07l-91.37 0 -5.69 112.64 91.36 0z"/>
  <path id="3" class="fil0" d="M1767.43 634.24c11.68,0.66 22.56,0.66 34.31,0l5.69 -112.64c-10.35,-0.66 -20.25,-0.66 -31.5,0l-3.48 68.94 -43.52 -68.94c-10.85,-0.66 -22.72,-0.66 -33.64,0l-5.7 112.64c9.85,0.99 21.55,0.99 31.5,0l3.4 -67.12 42.94 67.12z"/>
  <path id="4" class="fil0" d="M1909.92 634.24c9.04,0.66 23.55,0.66 32.66,0l-41.8 -112.64c-9.37,-0.66 -20.91,-0.66 -30.35,0l-53.19 112.64c9.04,0.66 23.22,0.66 32.32,0l8.21 -18.8 45.85 0 6.3 18.8zm-14.62 -43.54l-26.88 0 15.29 -34.96 11.59 34.96z"/>
  <path class="fil0" d="M262.44 170.11c-23.39,0 -45.79,4.5 -67.22,13.49 -21.43,8.99 -40.31,21.58 -56.65,37.76 -16.33,16.19 -29.07,34.85 -38.22,55.98 -9.14,21.13 -13.71,43.39 -13.71,66.76 0,23.38 4.65,45.64 13.94,66.77 9.29,21.13 22.1,39.79 38.44,55.98 16.34,16.18 35.14,28.77 56.43,37.76 21.28,8.99 43.6,13.49 66.99,13.49 23.38,0 45.78,-4.5 67.21,-13.49 21.43,-8.99 40.31,-21.58 56.65,-37.76 16.34,-16.19 29.07,-34.85 38.22,-55.98 9.14,-21.13 13.71,-43.39 13.71,-66.77 0,-23.37 -4.57,-45.63 -13.71,-66.76 -9.15,-21.13 -21.88,-39.79 -38.22,-55.98 -16.34,-16.18 -35.22,-28.77 -56.65,-37.76 -21.43,-8.99 -43.83,-13.49 -67.21,-13.49zm0 20.23c20.68,0 40.38,3.97 59.12,11.91 18.73,7.95 35.29,19.11 49.68,33.5 14.39,14.39 25.55,30.95 33.49,49.68 7.95,18.73 11.92,38.29 11.92,58.67 0,20.39 -4.05,39.95 -12.14,58.68 -8.1,18.73 -19.26,35.22 -33.5,49.45 -14.23,14.24 -30.72,25.4 -49.45,33.5 -18.74,8.09 -38.44,12.14 -59.12,12.14 -20.69,0 -40.39,-4.05 -59.13,-12.14 -18.73,-8.1 -35.22,-19.26 -49.45,-33.5 -14.24,-14.23 -25.41,-30.65 -33.5,-49.23 -8.09,-18.58 -12.14,-38.22 -12.14,-58.9 0,-20.67 4.05,-40.31 12.14,-58.89 8.09,-18.59 19.26,-35.07 33.5,-49.46 14.23,-14.39 30.72,-25.55 49.45,-33.5 18.74,-7.94 38.44,-11.91 59.13,-11.91zm375 6.53c-4.39,-4.17 -9.36,-9.39 -22.28,-15.56 -16.93,-8.11 -32.07,-10.89 -49.51,-11.04 -23.36,-0.21 -47.9,12.47 -57.88,22.92 -16.07,16.8 -24.05,33.95 -24.17,61.47 -0.1,21.12 9.88,43.22 35.59,60.54 17.84,12.01 29.53,19.33 49.66,28.29 11.8,5.26 33.69,17.58 40.68,22.22 20.28,13.46 36.13,31.6 37.77,54.59 1.56,21.99 -8.72,42.81 -24.69,57.86 -16.22,15.28 -36.97,21.19 -59.26,21.19 -19.88,0 -35.44,-3.76 -51.15,-14.51 -14.82,-10.15 -28.2,-25.58 -38.1,-44.04l-7.84 21.99c6.63,13.26 18.56,28.25 34.57,38.65 18.88,12.26 37.23,17.54 60.79,17.54 27.88,0 54.33,-7.47 75.09,-26.06 20.72,-18.55 33.14,-42.85 32,-70.78 -1.22,-29.97 -15.69,-50.6 -39.27,-68.24 -16.24,-12.15 -34.76,-20.69 -50.37,-27.88 -8.9,-4.11 -31.44,-16.34 -39.63,-21.48 -17.64,-11.07 -36.26,-28.45 -36.26,-50.8 0,-18.35 5.92,-33.1 18.2,-46.2 10.91,-11.62 29.43,-17.64 46.36,-17.44 15.6,0.19 28,3.87 40,9.95 12.7,6.42 26.66,15.5 40.23,27.43l-10.53 -30.61zm343.44 3.04c-6.85,-3.56 -20.4,-11.82 -40.81,-19.18 -19.4,-6.99 -39.42,-10.51 -60.23,-10.66 -22.58,-0.16 -43.37,3.8 -64.29,11.54 -22.25,8.24 -42.03,21.4 -58.86,37.92 -16.83,16.52 -29.99,35.57 -39.47,57.14 -9.49,21.57 -13.44,44.44 -13.44,68.62 0,23.86 4.03,46.51 13.67,67.92 9.64,21.42 22.87,40.39 39.7,56.92 16.83,16.52 37.28,28.75 59.14,37.95 16.95,7.13 32.35,10.32 55.9,10.89 19.91,0.48 41.95,-2.05 58.64,-6.44 15.09,-3.97 31.87,-10.44 38.89,-14.47l8.3 -24.53c-12.53,6.23 -31.34,14.21 -49.43,19.12 -14.44,3.91 -31.63,7.19 -52.75,6.74 -18.09,-0.38 -32.41,-2.32 -52.6,-10.68 -19.8,-8.2 -36.87,-20.27 -51.86,-34.65 -14.69,-14.38 -26.09,-30.83 -34.2,-49.34 -8.1,-18.51 -12.95,-37.71 -12.95,-57.6 0,-20.8 3.87,-42.42 12.13,-61.7 8.27,-19.27 20.71,-34.84 35.25,-49.83 14.53,-14.99 31.15,-26.87 50.48,-34.79 19.76,-8.09 38.77,-10.92 57.01,-10.87 19.35,0.06 40.77,5.05 58.36,11.64 22.18,8.3 44.77,21.66 55.37,30.39l-11.95 -32.05zm348.24 314.09l19.03 -0.25 -166.05 -379.14 -167.54 379.39 20.03 0 147.26 -333.57 147.27 333.57zm140.79 -162.95c20.84,-1.22 38.64,-8.67 53.72,-22.23 19.6,-17.62 26.72,-41.22 26.89,-65.48 0.1,-15.15 -2.36,-28.99 -8.39,-41.86 -6.03,-12.87 -13.53,-23.91 -26.14,-32.25 -11.21,-7.4 -23,-12.19 -35.73,-14.16 -12.73,-1.97 -28.73,-3.27 -48.31,-3.27l-46.01 0 0 342.6 20.47 -0.19 -0.56 -162.02 42.15 -0.1 102.02 161.56 23.62 0.28 -103.73 -162.88zm-63.97 -18.74l0.48 -139.9 18.19 -0.17c17.3,-0.16 31.09,0.3 40.72,1.2 9.62,0.91 19.3,2.69 26.87,5.86 12.66,5.31 21.28,14.07 27.97,25.43 6.69,11.36 9.7,23.7 9.7,37.03 0,10.6 -1.37,21.35 -5.78,30.89 -4.4,9.54 -10.06,18.15 -18.47,24.6 -8.56,6.57 -18.65,11.08 -28.6,13.05 -9.96,1.96 -22.57,2 -37.25,2l-33.83 0.01zm-224.2 180.2l54.2 0 -12.37 -28.86 -13.97 0 -2.29 -3.89 -2.29 0 -1.14 -2.29 -10.99 0 -2.98 -3.43 -0.92 -5.04 0.46 -4.81 2.52 -16.26 0 -10.76 0 -13.29 2.75 -13.05 0.45 -8.47 -0.91 -10.53 0.69 -5.04 2.52 -0.23 3.43 -5.96 2.52 -12.13 0.92 -10.76 -0.46 -8.02 -5.5 -4.35 -5.27 -1.15 -3.89 -2.97 -1.14 -3.67 0.91 -3.43 1.83 -4.58 0 -7.56 -1.83 -3.2 -3.2 -2.07 -4.05 -0.45 -4.04 0.45 -3.2 2.07 -1.83 3.2 0 7.56 1.83 4.58 0.91 3.43 -1.14 3.67 -3.89 2.97 -5.27 1.15 -5.5 4.35 -0.46 8.02 0.92 10.76 2.52 12.13 3.43 5.96 2.52 0.23 0.69 5.04 -0.92 10.53 0.46 8.47 2.75 13.05 0 13.29 0 10.76 2.52 16.26 0.46 4.81 -0.92 5.04 -2.98 3.43 -10.99 0 -1.14 2.29 -2.29 0 -2.29 3.89 -13.97 0 -12.37 28.86 54.19 0zm588.6 -315.64c-4.39,-4.17 -9.37,-9.39 -22.28,-15.56 -16.93,-8.11 -32.07,-10.89 -49.52,-11.04 -23.35,-0.21 -47.89,12.47 -57.87,22.92 -16.07,16.8 -24.05,33.95 -24.17,61.47 -0.1,21.12 9.88,43.22 35.59,60.54 17.84,12.01 29.53,19.33 49.66,28.29 11.8,5.26 33.69,17.58 40.68,22.22 20.28,13.46 36.13,31.6 37.76,54.59 1.57,21.99 -8.71,42.81 -24.68,57.86 -16.22,15.28 -36.98,21.19 -59.26,21.19 -19.89,0 -35.44,-3.76 -51.15,-14.51 -14.82,-10.15 -28.2,-25.58 -38.1,-44.04l-7.84 21.99c6.63,13.26 18.56,28.25 34.57,38.65 18.88,12.26 37.23,17.54 60.79,17.54 27.88,0 54.32,-7.47 75.09,-26.06 20.72,-18.55 33.14,-42.85 32,-70.78 -1.22,-29.97 -15.7,-50.6 -39.27,-68.24 -16.24,-12.15 -34.76,-20.69 -50.37,-27.88 -8.9,-4.11 -31.45,-16.34 -39.63,-21.48 -17.64,-11.07 -36.26,-28.45 -36.26,-50.8 0,-18.35 5.92,-33.1 18.2,-46.2 10.91,-11.62 29.43,-17.64 46.36,-17.44 15.6,0.19 28,3.87 40,9.95 12.7,6.42 26.66,15.5 40.23,27.43l-10.53 -30.61z"/>
  <g id="_2304666157968">
   <path class="fil1" d="M258.82 166.5c-23.38,0 -45.78,4.49 -67.21,13.48 -21.43,9 -40.32,21.58 -56.65,37.77 -16.34,16.19 -29.08,34.84 -38.22,55.97 -9.14,21.14 -13.71,43.39 -13.71,66.77 0,23.38 4.64,45.64 13.94,66.77 9.29,21.13 22.1,39.79 38.44,55.97 16.33,16.19 35.14,28.78 56.42,37.77 21.28,8.99 43.61,13.49 66.99,13.49 23.38,0 45.79,-4.5 67.22,-13.49 21.43,-8.99 40.31,-21.58 56.65,-37.77 16.33,-16.18 29.07,-34.84 38.21,-55.97 9.14,-21.13 13.72,-43.39 13.72,-66.77 0,-23.38 -4.58,-45.63 -13.72,-66.77 -9.14,-21.13 -21.88,-39.78 -38.21,-55.97 -16.34,-16.19 -35.22,-28.77 -56.65,-37.77 -21.43,-8.99 -43.84,-13.48 -67.22,-13.48zm0 20.23c20.68,0 40.39,3.97 59.12,11.91 18.74,7.95 35.3,19.11 49.68,33.5 14.39,14.39 25.56,30.94 33.5,49.68 7.94,18.73 11.91,38.29 11.91,58.67 0,20.38 -4.04,39.94 -12.14,58.67 -8.09,18.74 -19.25,35.22 -33.49,49.46 -14.24,14.24 -30.72,25.4 -49.46,33.49 -18.73,8.1 -38.44,12.14 -59.12,12.14 -20.68,0 -40.39,-4.04 -59.12,-12.14 -18.73,-8.09 -35.22,-19.25 -49.46,-33.49 -14.23,-14.24 -25.4,-30.65 -33.49,-49.23 -8.09,-18.59 -12.14,-38.22 -12.14,-58.9 0,-20.68 4.05,-40.31 12.14,-58.9 8.09,-18.58 19.26,-35.06 33.49,-49.45 14.24,-14.39 30.73,-25.55 49.46,-33.5 18.73,-7.94 38.44,-11.91 59.12,-11.91zm375 6.52c-4.38,-4.17 -9.36,-9.38 -22.27,-15.56 -16.93,-8.1 -32.08,-10.88 -49.52,-11.04 -23.35,-0.2 -47.89,12.48 -57.88,22.92 -16.06,16.81 -24.04,33.96 -24.17,61.48 -0.09,21.12 9.88,43.22 35.6,60.53 17.84,12.02 29.53,19.33 49.65,28.3 11.81,5.26 33.7,17.58 40.69,22.22 20.27,13.46 36.13,31.59 37.76,54.59 1.56,21.99 -8.71,42.81 -24.68,57.85 -16.22,15.29 -36.98,21.19 -59.26,21.19 -19.89,0 -35.44,-3.75 -51.15,-14.51 -14.82,-10.15 -28.2,-25.57 -38.1,-44.03l-7.84 21.99c6.62,13.25 18.56,28.25 34.57,38.65 18.88,12.26 37.22,17.54 60.79,17.54 27.88,0 54.32,-7.47 75.09,-26.06 20.71,-18.56 33.14,-42.85 32,-70.78 -1.23,-29.97 -15.7,-50.61 -39.27,-68.24 -16.24,-12.15 -34.76,-20.69 -50.37,-27.89 -8.9,-4.1 -31.45,-16.34 -39.64,-21.47 -17.64,-11.07 -36.26,-28.46 -36.26,-50.8 0,-18.36 5.92,-33.11 18.21,-46.2 10.91,-11.62 29.43,-17.65 46.36,-17.44 15.6,0.19 27.99,3.87 40,9.94 12.7,6.43 26.65,15.51 40.22,27.44l-10.53 -30.62zm343.44 3.05c-6.85,-3.56 -20.39,-11.82 -40.8,-19.18 -19.4,-7 -39.43,-10.52 -60.23,-10.66 -22.58,-0.16 -43.38,3.79 -64.3,11.54 -22.24,8.23 -42.03,21.39 -58.85,37.91 -16.83,16.53 -29.99,35.57 -39.48,57.15 -9.48,21.57 -13.44,44.44 -13.44,68.61 0,23.87 4.04,46.51 13.68,67.93 9.63,21.42 22.87,40.39 39.7,56.91 16.82,16.53 37.27,28.75 59.14,37.96 16.94,7.13 32.34,10.31 55.9,10.88 19.91,0.48 41.95,-2.05 58.64,-6.44 15.09,-3.96 31.86,-10.43 38.89,-14.47l8.29 -24.52c-12.53,6.23 -31.34,14.21 -49.42,19.11 -14.44,3.92 -31.63,7.2 -52.76,6.75 -18.08,-0.38 -32.41,-2.32 -52.59,-10.68 -19.81,-8.2 -36.87,-20.27 -51.87,-34.65 -14.68,-14.38 -26.08,-30.83 -34.19,-49.34 -8.11,-18.51 -12.95,-37.71 -12.95,-57.6 0,-20.81 3.87,-42.43 12.13,-61.7 8.26,-19.28 20.71,-34.84 35.24,-49.83 14.54,-14.99 31.16,-26.88 50.49,-34.79 19.76,-8.1 38.76,-10.93 57.01,-10.87 19.34,0.05 40.77,5.05 58.36,11.64 22.17,8.3 44.76,21.66 55.37,30.38l-11.96 -32.04zm348.24 314.08l19.03 -0.25 -166.04 -379.13 -167.54 379.38 20.03 0 147.26 -333.56 147.26 333.56zm140.79 -162.94c20.84,-1.23 38.64,-8.67 53.73,-22.23 19.59,-17.62 26.71,-41.23 26.88,-65.48 0.11,-15.15 -2.35,-28.99 -8.38,-41.86 -6.04,-12.88 -13.53,-23.91 -26.15,-32.25 -11.2,-7.4 -23,-12.2 -35.73,-14.16 -12.72,-1.97 -28.72,-3.28 -48.3,-3.28l-46.02 0 0 342.61 20.48 -0.19 -0.57 -162.03 42.16 -0.09 102.02 161.55 23.62 0.29 -103.74 -162.88zm-63.96 -18.75l0.48 -139.89 18.19 -0.17c17.29,-0.16 31.09,0.29 40.71,1.2 9.62,0.91 19.31,2.69 26.88,5.86 12.66,5.3 21.27,14.07 27.96,25.43 6.69,11.35 9.7,23.7 9.7,37.03 0,10.6 -1.36,21.34 -5.77,30.89 -4.4,9.54 -10.06,18.14 -18.47,24.6 -8.56,6.57 -18.66,11.07 -28.61,13.04 -9.95,1.97 -22.56,2.01 -37.24,2.01l-33.83 0zm-224.2 180.2l54.19 0 -12.36 -28.85 -13.97 0 -2.29 -3.89 -2.29 0 -1.15 -2.29 -10.99 0 -2.98 -3.44 -0.91 -5.04 0.46 -4.81 2.52 -16.25 0 -10.77 0 -13.28 2.74 -13.05 0.46 -8.47 -0.91 -10.54 0.68 -5.04 2.52 -0.22 3.44 -5.96 2.52 -12.14 0.91 -10.76 -0.46 -8.01 -5.49 -4.35 -5.27 -1.15 -3.89 -2.98 -1.15 -3.66 0.92 -3.44 1.83 -4.58 0 -7.55 -1.83 -3.21 -3.21 -2.06 -4.04 -0.46 -4.04 0.46 -3.21 2.06 -1.83 3.21 0 7.55 1.83 4.58 0.92 3.44 -1.14 3.66 -3.9 2.98 -5.27 1.15 -5.49 4.35 -0.46 8.01 0.92 10.76 2.52 12.14 3.43 5.96 2.52 0.22 0.69 5.04 -0.92 10.54 0.46 8.47 2.75 13.05 0 13.28 0 10.77 2.52 16.25 0.45 4.81 -0.91 5.04 -2.98 3.44 -10.99 0 -1.15 2.29 -2.29 0 -2.29 3.89 -13.96 0 -12.37 28.85 54.19 0zm588.59 -315.64c-4.38,-4.17 -9.36,-9.38 -22.27,-15.56 -16.93,-8.1 -32.08,-10.88 -49.52,-11.04 -23.35,-0.2 -47.89,12.48 -57.88,22.92 -16.06,16.81 -24.04,33.96 -24.17,61.48 -0.09,21.12 9.88,43.22 35.6,60.53 17.84,12.02 29.53,19.33 49.65,28.3 11.81,5.26 33.7,17.58 40.69,22.22 20.27,13.46 36.13,31.59 37.76,54.59 1.56,21.99 -8.71,42.81 -24.68,57.85 -16.23,15.29 -36.98,21.19 -59.26,21.19 -19.89,0 -35.45,-3.75 -51.15,-14.51 -14.82,-10.15 -28.2,-25.57 -38.1,-44.03l-7.84 21.99c6.62,13.25 18.56,28.25 34.57,38.65 18.88,12.26 37.22,17.54 60.79,17.54 27.88,0 54.32,-7.47 75.09,-26.06 20.71,-18.56 33.14,-42.85 32,-70.78 -1.23,-29.97 -15.7,-50.61 -39.27,-68.24 -16.25,-12.15 -34.76,-20.69 -50.37,-27.89 -8.91,-4.1 -31.45,-16.34 -39.64,-21.47 -17.64,-11.07 -36.26,-28.46 -36.26,-50.8 0,-18.36 5.92,-33.11 18.21,-46.2 10.91,-11.62 29.43,-17.65 46.36,-17.44 15.6,0.19 27.99,3.87 40,9.94 12.7,6.43 26.65,15.51 40.22,27.44l-10.53 -30.62z"/>
   <path class="fil2" d="M1830.09 484.36c7.74,0 14.02,6.28 14.02,14.03 0,7.74 -6.28,14.02 -14.02,14.02 -7.75,0 -14.03,-6.28 -14.03,-14.02 0,-7.75 6.28,-14.03 14.03,-14.03zm0 2.13c6.57,0 11.89,5.33 11.89,11.9 0,6.57 -5.32,11.9 -11.89,11.9 -6.58,0 -11.9,-5.33 -11.9,-11.9 0,-6.57 5.32,-11.9 11.9,-11.9z"/>
   <path class="fil2" d="M1826.27 506.39l0 -16.28 3.82 0c1.09,0 1.89,0.06 2.4,0.18 0.5,0.13 0.95,0.34 1.34,0.64 0.48,0.37 0.85,0.88 1.12,1.51 0.27,0.64 0.4,1.34 0.4,2.11 0,1.33 -0.37,2.35 -1.11,3.04 -0.75,0.69 -1.84,1.04 -3.28,1.04l-0.34 0 6.21 7.76 -2.46 0 -5.94 -7.76 -0.27 0 0 7.76 -1.89 0zm1.89 -14.64l0 5.44 1.47 0c1.52,0 2.53,-0.19 3.04,-0.58 0.51,-0.39 0.77,-1.07 0.77,-2.04 0,-1.04 -0.26,-1.77 -0.79,-2.19 -0.53,-0.42 -1.53,-0.63 -3.02,-0.63l-1.47 0z"/>
  </g>
 </g>
</svg>
